<svg xmlns="http://www.w3.org/2000/svg" viewBox="0 0 250 250"><title>color_1</title><g id="f5981e99-f71e-480c-a9bb-c0e9bac7b026" data-name="Layer 2"><g id="aa5c3502-7f39-4110-9440-c94f91f43b73" data-name="Calque 1"><rect id="27e11f6e-d7b7-42fc-8907-5d742968dc17" data-name="&lt;Path&gt;" width="250" height="250" style="fill:#fff"/><path d="M94,167.77a11,11,0,0,1-7.87-3.25,11.28,11.28,0,0,1,0-15.75l37.34-37.34L117,105l12-12,10.3,10.3V99.12l12.8-12.79a8.69,8.69,0,0,1,12.16,0,8.72,8.72,0,0,1,0,12.16l-12.83,13.07a2.6,2.6,0,0,0-.56.44l-1.4,1.41,8.17,8.17-12,12-6.44-6.44-37.34,37.34A11.06,11.06,0,0,1,94,167.77Zm-7.11-18.24a10.15,10.15,0,0,0,0,14.23,9.84,9.84,0,0,0,7.07,2.9,10.2,10.2,0,0,0,7.16-2.9l37.34-37.34-14.23-14.23Z" style="fill:#7ab8e6"/><path d="M158.19,85.85a6.6,6.6,0,0,1,4.64,11.25L150.18,110a5.41,5.41,0,0,0-.71.6l-2.83,2.83,2.83,2.83,5.35,5.35-9.21,9.2L142,127.18l-.77-.76-2.82-2.83L127,112.19l-1.8-1.8-1.79-1.79L119.8,105,129,95.78l5.47,5.47,6.82,6.8V100l12.21-12.21a6.54,6.54,0,0,1,4.67-1.89m0-4a10.54,10.54,0,0,0-7.5,3.07L137.44,98.17c-.13.13-.13.13-.13.25l-8.3-8.3L114.15,105l6.44,6.44L84.66,147.35A13.13,13.13,0,0,0,94,169.77a13.1,13.1,0,0,0,9.29-3.84L139.17,130l6.44,6.44,14.87-14.86-8.18-8.18c.13-.12.13-.12.25-.12l13.13-13.38a10.69,10.69,0,0,0,0-15,10.54,10.54,0,0,0-7.49-3.07ZM93.91,164.66a7.78,7.78,0,0,1-5.65-2.32,8.15,8.15,0,0,1,0-11.4L124.18,115l11.4,11.4L99.65,162.34a8.1,8.1,0,0,1-5.74,2.32Z" style="fill:#256e9d"/></g></g></svg>