<svg xmlns="http://www.w3.org/2000/svg" viewBox="0 0 1805.21 497.93"><title>blendful-full_2</title><g id="a8915f62-65a2-42fe-8ea1-5398ed491b44" data-name="Layer 2"><g id="1812f1ea-1af3-4fe3-a014-4b88addea667" data-name="Layer 2"><rect width="497.93" height="497.93" rx="117.16" ry="117.16" style="fill:#231f20"/><path d="M232.8,111.53c38.31,0,79,20.76,79,64.66a68.26,68.26,0,0,1-27.93,54.68c25.94,7.18,54.68,34.72,54.68,77,0,46.7-39.52,80.23-86.61,80.23H185.7c-15.56,0-26.34-11.58-26.34-26.75V138.27c0-15.16,10.78-26.74,26.34-26.74Z" style="fill:#fff;stroke:#231f20;stroke-miterlimit:10"/><path d="M540,129.14h72.91v275.3H540Z" style="fill:#231f20"/><path d="M739.75,407.05c-61.75,0-106-40.55-106-107.15,0-66.22,43.52-106.77,106-106.77,61.76,0,105.29,39.81,105.29,104.54a132.86,132.86,0,0,1-1.12,17.11h-138c1.49,24.19,14.51,33.86,30.88,33.86,14.13,0,22-7.81,26-16.37h77.75C830.9,375.05,791.84,407.05,739.75,407.05ZM706.27,279.44h64.36c0-18.6-14.51-28.64-31.25-28.64C721.9,250.8,709.62,260.47,706.27,279.44Z" style="fill:#231f20"/><path d="M1008,292.46c0-24.18-13.39-38.32-34.22-38.32-21.58,0-35,14.14-35,38.32v112H865.87V195.74h72.91V225.5c12.28-17.86,34.23-31.63,63.62-31.63,48.37,0,78.5,34.23,78.5,88.92V404.44H1008Z" style="fill:#231f20"/><path d="M1189.52,193.13c27.53,0,49.11,12.28,60.64,31.25V129.14h73.29v275.3h-73.29v-29c-10.78,18.61-31.62,31.63-61,31.63-49.48,0-88.91-40.55-88.91-107.15S1139.67,193.13,1189.52,193.13Zm23.07,63.62c-20.83,0-37.95,14.88-37.95,43.15,0,27.91,17.12,43.53,37.95,43.53,20.46,0,38-15.25,38-43.53C1250.54,272,1233.05,256.75,1212.59,256.75Z" style="fill:#231f20"/><path d="M1362.88,256.38h-22.69V195.74h22.69v-1.87c0-57.66,37.58-87.42,105.29-82.59v62.13c-22-2.23-30.88,3.72-32,22.33h32.74v60.64h-32.74V404.44h-73.29Z" style="fill:#231f20"/><path d="M1699.56,404.44h-73.29V374.68c-11.9,17.86-33.85,31.62-63.24,31.62-48.37,0-78.5-34.22-78.5-89.28V195.74h72.54v112c0,24.18,13.77,38.31,34.6,38.31,21.21,0,34.6-14.13,34.6-38.31v-112h73.29Z" style="fill:#231f20"/><path d="M1732.29,129.14h72.92v275.3h-72.92Z" style="fill:#231f20"/></g></g></svg>