<svg xmlns="http://www.w3.org/2000/svg" viewBox="0 0 133.02 27.36"><title>beaver_1</title><g id="db694332-327b-4ca4-9d3f-2b7851482286" data-name="Layer 2"><g id="83c1843b-2782-4d83-b075-5b24ac913150" data-name="Layer 1"><path d="M26.15,19a12.88,12.88,0,0,1-6.75,7,13.23,13.23,0,0,1-13.14-.88,13.48,13.48,0,0,1-6.2-9.68A10.29,10.29,0,0,1,0,14a2.17,2.17,0,0,1,2,.44,1.66,1.66,0,0,1,.24.81,12.26,12.26,0,0,0,2.17,5.2.28.28,0,0,0,.24.16c.12-2.44-.12-4.88.21-7.3.11-.43.35-.57.75-.33s.66.23.83.57a2.52,2.52,0,0,1,.08.91v7.17a2.18,2.18,0,0,0,1.64,2c.28.06.3-.11.32-.31a4,4,0,0,1,0-.85c.06-.22.16-.45.43-.45s.34.26.36.48a9.14,9.14,0,0,1,0,1.17.71.71,0,0,0,.56.76,11.11,11.11,0,0,0,5.91.39A13.11,13.11,0,0,0,18.32,24a1.11,1.11,0,0,0,.78-1.23,2.12,2.12,0,0,1,.06-.79c.06-.19.16-.34.38-.34s.31.17.37.36,0,.24.05.36-.07.42.15.48.35-.15.47-.31a1.17,1.17,0,0,0,.12-.71c0-1.29,0-2.57,0-3.85,0-.82.21-1,.88-.53.39.25.86,0,1.22.32.4.89.48.91,1.54.31a8.67,8.67,0,0,0,1.35.37C26,18.53,26.3,18.59,26.15,19Z" style="fill:#282828"/><path d="M2,14.49A5.05,5.05,0,0,0,0,14,11.57,11.57,0,0,1,1,8.4,13.24,13.24,0,0,1,8.28,1.08,13.58,13.58,0,0,1,26,8a12.61,12.61,0,0,1,1,8.09c-.24.16-.38,0-.49-.18-.21-.32-.51-.58-.72-.89a1.54,1.54,0,0,0-1.06-.81.36.36,0,0,1-.31-.49.8.8,0,0,0,.57-.94,9.26,9.26,0,0,0-.23-1.58,11.55,11.55,0,0,0-10.12-8.9A11.15,11.15,0,0,0,6.21,5,11.26,11.26,0,0,0,2.54,10.9a10.33,10.33,0,0,0-.39,2.72C2.16,13.92,2.24,14.24,2,14.49Z" style="fill:#5e5e5e"/><path d="M24.43,13.76c.1.1.19.29.29.29,1.1,0,1.26,1.11,1.86,1.68.14.13.2.35.44.35A8.46,8.46,0,0,1,26.15,19c-.07-.51-.53-.43-.82-.46a1.74,1.74,0,0,1-1-.4c-.43-.32-.93-.13-1.4-.23-.19-.08-.39-.2-.58-.12-.4.18-.65,0-.91-.27-.1-.11-.26-.24-.42-.15s-.09.26-.09.39v4.28c0,.22.08.46-.12.64-.29-.28-.21-.65-.21-1,0-2.39,0-4.78,0-7.17a16.17,16.17,0,0,0-.28-3.33c0-.13.09-.25.22-.26.42,0,.8-.22,1.22-.21a.42.42,0,0,1,.19.42,1,1,0,0,1-.32.44.77.77,0,0,0-.24.87,1.82,1.82,0,0,1-.17,1.42,1.92,1.92,0,0,0-.11,1.25c.07.44.45.54,1,.31.52-.52.88-1.21,1.58-1.54C23.91,13.8,24.13,13.55,24.43,13.76Z" style="fill:#4e4e4e"/><path d="M20.35,11.06A11.21,11.21,0,0,1,20.8,15c0,2.56,0,5.13,0,7.69-.28.23-.55.69-.88.56s-.06-.63-.12-1,.13-.53-.22-.53-.3.31-.25.52c.28,1.32-.48,1.77-1.57,2.17a11.62,11.62,0,0,1-7.93.12c-.37-.12-.64-.26-.55-.77a7.26,7.26,0,0,0,0-1.4c0-.16,0-.35-.26-.33s-.2.18-.21.32c0,.43,0,.85,0,1.28s-.13.41-.44.25a16.48,16.48,0,0,1-1.6-1,.84.84,0,0,1-.31-.81V14.54c0-.35,0-.69,0-1a.75.75,0,0,1-.13-.63,7.38,7.38,0,0,1,11.5-5.23,6.93,6.93,0,0,1,2.39,2.73C20.27,10.58,20.43,10.79,20.35,11.06Z" style="fill:#fff"/><path d="M21.85,11.18l-.14-.37a4.74,4.74,0,0,1-.77-1.39A1,1,0,0,1,21,8.6a1.57,1.57,0,0,0-.22-1.83A1.49,1.49,0,0,0,19,6.49a1,1,0,0,1-1-.07,8.17,8.17,0,0,0-4.26-1.16,8.12,8.12,0,0,0-4.06,1,1.65,1.65,0,0,1-1.61.18,1.37,1.37,0,0,0-1.57.37A1.44,1.44,0,0,0,6.2,8.43a1.43,1.43,0,0,1-.09,1.39,14.57,14.57,0,0,0-1.05,3.44C4.93,14.52,5,15.78,5,17.05s0,2.4,0,3.61c0,.15.09.36-.12.43s-.26-.17-.34-.28A12,12,0,0,1,2.2,15.63c-.07-.39-.15-.76-.22-1.14a13,13,0,0,1,.69-4.63A11.61,11.61,0,0,1,24.92,11a15.08,15.08,0,0,1,.26,1.75c.08.59,0,1-.75,1a3,3,0,0,0-1.75,1.29c-.12.18-.27.35-.41.52A.58.58,0,0,1,22,15a15.33,15.33,0,0,0-.24-3.51A.71.71,0,0,1,21.85,11.18Z" style="fill:#fff"/><path d="M5.06,13.26a7.62,7.62,0,0,1,1-3.68.86.86,0,0,0,0-.95,1.64,1.64,0,0,1,.28-2,1.62,1.62,0,0,1,2-.36.9.9,0,0,0,1,0,8.58,8.58,0,0,1,8.52-.12,1.33,1.33,0,0,0,1.35.11,1.55,1.55,0,0,1,1.8.4,1.53,1.53,0,0,1,.3,1.87,1.15,1.15,0,0,0,.08,1.28,3.1,3.1,0,0,1,.4,1,1.82,1.82,0,0,1-1.36.25,7.67,7.67,0,0,0-3.71-3.9,7.15,7.15,0,0,0-9.48,3.4,7.93,7.93,0,0,0-.75,2.94A7.76,7.76,0,0,1,5.5,13C5.19,12.84,5.21,13.2,5.06,13.26Z" style="fill:#656565"/><path d="M22.89,17.93a2.33,2.33,0,0,1,1.17-.09c.2,0,.29.11.23.32a1.26,1.26,0,0,1-1.44.45C22.51,18.39,22.91,18.16,22.89,17.93Z" style="fill:#fff"/><path d="M22.75,20.26c-.2,0-.33-.05-.33-.33s.19-.56.57-.5c.17,0,.5-.11.47.18A.66.66,0,0,1,22.75,20.26Z" style="fill:#fff"/><path d="M21.85,11.18a7.77,7.77,0,0,1,.37,3,5,5,0,0,0,.05,1.4.91.91,0,0,1-1.13.08c-.41-.19-.23-.57-.24-.86a1.53,1.53,0,0,1,.27-1.21,1,1,0,0,0,0-.94C20.82,11.85,21.4,11.56,21.85,11.18Z" style="fill:#313131"/><path d="M23.94,17.08c-.15-.11-.6.23-.58-.23a.58.58,0,0,1,.77-.55c.25.05.69-.25.7.28S24.39,17.1,23.94,17.08Z" style="fill:#fff"/><path d="M24.48,15.33c.17-.19.34-.29.55-.17a.13.13,0,0,1,0,.2C24.89,15.54,24.71,15.49,24.48,15.33Z" style="fill:#c9c9c9"/><path d="M10.08,14.61a4.6,4.6,0,0,1,1.1-4.94,3.52,3.52,0,0,1,5.28.41,4.73,4.73,0,0,1,.27,5.41c-.16-.05-.25-.2-.35-.31a.41.41,0,0,0-.67,0c-.12.12-.25.38-.47.09a1.11,1.11,0,0,0-.18-.32.65.65,0,0,0-.62-.17c-.25.07-.24.31-.24.5,0,.7,0,1.39,0,2.08,0,.26,0,.54-.2.74-.33-.13-.28-.43-.29-.68,0-.69,0-1.38,0-2.07,0-.26,0-.55-.33-.65A2,2,0,0,0,12,15a9.69,9.69,0,0,1-1.26-.4A.72.72,0,0,0,10.08,14.61Z" style="fill:#696969"/><path d="M13.22,14.5c.56-.12.7.13.68.65,0,.77,0,1.54,0,2.31,0,.19-.09.41.12.56a4.16,4.16,0,0,0,1-1.74,1.79,1.79,0,0,1,.39-.93c.6-.83.93-.8,1.35.14A12.82,12.82,0,0,0,15.31,18c-.74,1.51-2.3,1.68-3.12.26-.69-1.19-1.47-2.32-2.08-3.55a.53.53,0,0,1,0-.12c.06-.12,0-.4.17-.33.53.3,1.25.13,1.66.7.22.17.19.43.25.66a4.53,4.53,0,0,0,.83,2,1.6,1.6,0,0,0,.11-.79A9.25,9.25,0,0,1,13.22,14.5Z" style="fill:#2d2d2d"/><path d="M16.26,23.49c0-.24,0-.49,0-.73s0-.34.25-.33.27.16.27.34c0,.5,0,1,0,1.52,0,.15-.05.35-.26.35s-.24-.19-.25-.36v-.79Z" style="fill:#434343"/><path d="M18.8,16.28v-.8c0-.16.06-.28.25-.26s.21.11.21.24c0,.55,0,1.11,0,1.66a.23.23,0,0,1-.27.25c-.17,0-.23-.13-.22-.3v-.79Z" style="fill:#505050"/><path d="M8,19.48c0,.27,0,.53,0,.79a.25.25,0,0,1-.28.25.24.24,0,0,1-.2-.27V18.61c0-.15.05-.29.23-.26a.26.26,0,0,1,.26.28c0,.29,0,.57,0,.85Z" style="fill:#3f3f3f"/><path d="M14,22.86c0,.27,0,.53,0,.79s-.06.28-.25.27a.24.24,0,0,1-.23-.24c0-.54,0-1.09,0-1.63,0-.16.09-.29.25-.28s.22.16.22.31S14,22.6,14,22.86Z" style="fill:#3c3c3c"/><path d="M17.07,19.41v-.74c0-.15,0-.28.22-.29a.23.23,0,0,1,.27.25c0,.55,0,1.1,0,1.65,0,.17-.12.25-.29.24s-.19-.13-.19-.26v-.85Z" style="fill:#313131"/><path d="M11.21,20.54c0,.26,0,.53,0,.79s-.05.24-.21.24-.21-.13-.21-.24c0-.55,0-1.09,0-1.64,0-.14.05-.29.25-.27s.17.16.17.27c0,.29,0,.57,0,.85Z" style="fill:#2f2f2f"/><path d="M8.17,14.16c0,.25,0,.49,0,.74a.24.24,0,0,1-.2.27.21.21,0,0,1-.22-.23c0-.57,0-1.14,0-1.72A.17.17,0,0,1,8,13c.12,0,.17.11.18.22v.91Z" style="fill:#535353"/><path d="M9.22,8.84c.38,0,.52.16.53.45s-.13.51-.45.51a.44.44,0,0,1-.46-.51A.41.41,0,0,1,9.22,8.84Z" style="fill:#646464"/><path d="M18.45,9.26c0,.31-.12.53-.43.54a.41.41,0,0,1-.48-.42c0-.31.1-.52.44-.54S18.38,9.05,18.45,9.26Z" style="fill:#757575"/><path d="M14,12.86c-.05-.46,0-.78.57-.89a1,1,0,0,0,.75-.94,1,1,0,0,0-.73-1,2.1,2.1,0,0,0-1.83,0,1.08,1.08,0,0,0-.77,1,1,1,0,0,0,.76.94c.19.08.49,0,.51.34a7.08,7.08,0,0,1,0,1.22c0,.15-.22.16-.36.16a5.94,5.94,0,0,0-1.68.31c-.28.06-.41.07-.49-.23a3.41,3.41,0,0,1,.72-3.15,2.6,2.6,0,0,1,2.91-1.07,3.55,3.55,0,0,1,2.26,4.27c-.06.23-.21.24-.42.19a9.37,9.37,0,0,0-1.74-.33C13.82,13.68,14,13.18,14,12.86Z" style="fill:#fff"/><path d="M15.38,15.35a6.28,6.28,0,0,1-.82,2.3c-.12.18-.2.48-.54.37,0-1,0-1.92,0-2.88,0-.28-.11-.66.4-.66s.93.22.95.69A1.1,1.1,0,0,0,15.38,15.35Z" style="fill:#fff"/><path d="M13.22,14.5c0,1.08,0,2.16,0,3.24,0,.11,0,.26-.13.3s-.2-.11-.27-.21A5.31,5.31,0,0,1,11.91,15C12.18,14.37,12.74,14.53,13.22,14.5Z" style="fill:#fff"/><path d="M38,4h9.22c4.68,0,6.83,1.81,6.83,5.11a4.11,4.11,0,0,1-3.84,4.25v0c2.9.4,4.33,2.15,4.33,4.45,0,3.27-2.32,5.11-6.89,5.11H38Zm8.33,7.75Q49,11.73,49,9.66c0-1.37-.89-2.06-2.67-2.06H42.79v4.13Zm.49,7.73c1.78,0,2.67-.75,2.67-2.13s-.89-2.07-2.67-2.07H42.79v4.2Z" style="fill:#5e5e5e"/><path d="M71.16,17.16H61.37a2.75,2.75,0,0,0,3,2.61c1.44,0,2.33-.57,2.65-1.58l4,1.27c-.83,2.5-3.27,3.76-6.61,3.76-5,0-7.75-2.73-7.75-7.47s2.7-7.46,7.5-7.46,7.18,2.72,7.18,7.26A8.65,8.65,0,0,1,71.16,17.16Zm-9.79-2.64h5.4c-.26-1.84-1.15-2.82-2.67-2.82S61.63,12.56,61.37,14.52Z" style="fill:#5e5e5e"/><path d="M88.8,20l-.38,2.73a3.93,3.93,0,0,1-2,.46c-1.92,0-3.27-.66-3.7-2.21-.81,1.38-2.47,2.21-5.12,2.21-2.84,0-4.45-1.26-4.45-3.59s1.52-3.91,5.6-4.71l3.25-.63v-.52a1.92,1.92,0,0,0-2-2.12,2.38,2.38,0,0,0-2.67,2.21l-4-1.15C73.86,10,76.1,8.29,80,8.29c4.42,0,6.86,1.81,6.86,5.51V19c0,.74.35,1.12,1,1.12A2.7,2.7,0,0,0,88.8,20Zm-6.75-2V16.79l-2.33.54c-1.2.29-1.69.69-1.69,1.5s.51,1.23,1.4,1.23C80.64,20.06,82.05,19.34,82.05,18Z" style="fill:#5e5e5e"/><path d="M104.48,8.57,99.31,22.93H93.48L88.31,8.57h5.14l3,11.26,3-11.26Z" style="fill:#5e5e5e"/><path d="M119.73,17.16h-9.8a2.76,2.76,0,0,0,3,2.61c1.44,0,2.33-.57,2.64-1.58l4,1.27c-.84,2.5-3.28,3.76-6.61,3.76-5,0-7.75-2.73-7.75-7.47s2.7-7.46,7.49-7.46,7.18,2.72,7.18,7.26A9.65,9.65,0,0,1,119.73,17.16Zm-9.8-2.64h5.4c-.25-1.84-1.14-2.82-2.67-2.82S110.19,12.56,109.93,14.52Z" style="fill:#5e5e5e"/><path d="M133,8.6l-.51,4.14a3.73,3.73,0,0,0-1.81-.43,3.11,3.11,0,0,0-3.22,3.39v7.23H122.6V8.57h4.31l.2,3.08a4.35,4.35,0,0,1,4.36-3.36A3.32,3.32,0,0,1,133,8.6Z" style="fill:#5e5e5e"/></g></g></svg>