<svg xmlns="http://www.w3.org/2000/svg" viewBox="0 0 157.57 28.64"><title>polymath_1</title><g id="0d451a8d-d9f2-43f8-b400-7df0abc599d2" data-name="Layer 2"><g id="64512bbe-f2d3-44a9-b78e-08cd04fb5fe4" data-name="Layer 1"><path d="M53.27,11.73H55a1.5,1.5,0,0,0,1.7-1.48h0c0-1-.68-1.47-1.76-1.47h-3.8V6.85h4c2.33,0,3.75,1.36,3.75,3.35h0c0,2.27-1.76,3.4-3.92,3.4H53.27v2.9H51.12V11.67Z" style="fill:#404040"/><path d="M63.49,11.73h0a5,5,0,0,1,5.17-5.05,5,5,0,0,1,5.16,5h0a5.17,5.17,0,0,1-10.33.06Zm8.12,0h0a3,3,0,0,0-3-3.07,2.91,2.91,0,0,0-2.9,3h0a3,3,0,0,0,3,3.07A2.89,2.89,0,0,0,71.61,11.73Z" style="fill:#404040"/><path d="M80,6.85h2.15v7.78H87v1.93H80V6.85Z" style="fill:#404040"/><path d="M94.77,12.75,91,6.85h2.5l2.32,3.92,2.39-3.92h2.44L96.93,12.7v3.86H94.77Z" style="fill:#404040"/><path d="M106.19,6.85h2.32L111.07,11l2.55-4.14H116v9.76h-2.1V10.25l-2.72,4.15h-.06l-2.73-4.15v6.31h-2.1V6.85Z" style="fill:#404040"/><path d="M127.93,12.53l-1.31-3.18-1.3,3.18-.74,1.87-.91,2.16h-2.16l4.21-9.83h2l4.2,9.83h-2.32l-.91-2.16Z" style="fill:#404040"/><path d="M138.55,8.84h-3v-2h8.07v2h-3v7.77h-2.15Z" style="fill:#404040"/><path d="M149.28,6.85h2.15v3.86h4V6.85h2.16v9.76h-2.16V12.7h-4v3.91h-2.15Z" style="fill:#404040"/><g style="isolation:isolate"><path d="M52.36,20.3v2.44h-.51V20.3H51v-.45h2.32v.45Z" style="fill:#636363"/><path d="M56.85,22.74V21.55H55.32v1.19h-.51V19.85h.51V21.1h1.53V19.85h.51v2.89Z" style="fill:#636363"/><path d="M59.69,20.3v.8h1.42v.45H59.69v.8h1.59v.45h-2.1V19.91h2v.45H59.69Z" style="fill:#636363"/><path d="M66.67,20a1.33,1.33,0,0,1,.46.23l-.23.45a1.61,1.61,0,0,0-.46-.22,1,1,0,0,0-.39-.06c-.17,0-.29,0-.34.06a.27.27,0,0,0-.12.22.33.33,0,0,0,.06.23.28.28,0,0,0,.23.11c.11,0,.17.06.34.12a3.61,3.61,0,0,1,.45.17,1,1,0,0,1,.34.23c.12.11.12.22.12.45a1,1,0,0,1-.12.45.92.92,0,0,1-.4.29,1.86,1.86,0,0,1-.56.11,2.29,2.29,0,0,1-.63-.11,1.07,1.07,0,0,1-.51-.34l.23-.4a1.84,1.84,0,0,0,.45.28,1.58,1.58,0,0,0,.51.12.79.79,0,0,0,.4-.12c.11-.05.11-.17.11-.28s0-.17,0-.23a.34.34,0,0,0-.23-.11c-.06-.06-.17-.06-.34-.11l-.45-.17a.61.61,0,0,1-.29-.23.5.5,0,0,1-.11-.4.71.71,0,0,1,.45-.68,1.4,1.4,0,0,1,.57-.11A.82.82,0,0,1,66.67,20Z" style="fill:#636363"/><path d="M69.4,20.3v.8h1.42v.45H69.4v.8H71v.45h-2.1V19.91h2v.45H69.4Z" style="fill:#636363"/><path d="M74.56,20a1.38,1.38,0,0,1,.51.34l-.28.34a1.07,1.07,0,0,0-.4-.28,1.24,1.24,0,0,0-.45-.11,1.56,1.56,0,0,0-.51.11,2.36,2.36,0,0,0-.4.34.78.78,0,0,0-.11.51,1.56,1.56,0,0,0,.11.51.6.6,0,0,0,.4.34.8.8,0,0,0,.51.12,1.07,1.07,0,0,0,.4-.12c.11,0,.28-.17.39-.22l.29.34a1.38,1.38,0,0,1-.51.34,2.3,2.3,0,0,1-.57.11,1.61,1.61,0,0,1-.74-.17,1.05,1.05,0,0,1-.51-.51,1.61,1.61,0,0,1-.17-.74,1.64,1.64,0,0,1,.17-.74,1.29,1.29,0,0,1,.57-.51,1.78,1.78,0,0,1,.74-.17Z" style="fill:#636363"/><path d="M79,22.23a.81.81,0,0,1-.45.4,1.24,1.24,0,0,1-.68.17,1.41,1.41,0,0,1-.69-.17,1.44,1.44,0,0,1-.45-.4,1.15,1.15,0,0,1-.17-.62v-1.7H77v1.7a.67.67,0,0,0,.23.57.87.87,0,0,0,.57.22.72.72,0,0,0,.57-.22.9.9,0,0,0,.22-.57v-1.7h.51v1.7A.86.86,0,0,1,79,22.23Z" style="fill:#636363"/><path d="M82.28,21.89h-.79v.85H81V19.85h1.19a1.38,1.38,0,0,1,.85.28.81.81,0,0,1,.29.74,1,1,0,0,1-.17.57.74.74,0,0,1-.46.34l.63,1h-.57Zm.4-.56a.56.56,0,0,0,.17-.46.44.44,0,0,0-.17-.4c-.11-.11-.28-.11-.51-.11h-.68V21.5h.68C82.34,21.44,82.57,21.38,82.68,21.33Z" style="fill:#636363"/><path d="M85.07,22.74V19.85h.51v2.89Z" style="fill:#636363"/><path d="M88.47,20.3v2.44H88V20.3h-.91v-.45h2.33v.45Z" style="fill:#636363"/><path d="M91,22.74V19.85h.51v2.89Z" style="fill:#636363"/><path d="M93.81,20.3v.8h1.42v.45H93.81v.8H95.4v.45H93.3V19.91h2v.45H93.81Z" style="fill:#636363"/><path d="M98.63,20a1.17,1.17,0,0,1,.46.23l-.23.45a1.56,1.56,0,0,0-.45-.22,1.07,1.07,0,0,0-.4-.06c-.17,0-.28,0-.34.06a.26.26,0,0,0-.11.22.39.39,0,0,0,0,.23.3.3,0,0,0,.23.11c.11,0,.17.06.34.12a3.61,3.61,0,0,1,.45.17.56.56,0,0,1,.29.23c.11.11.11.22.11.45a.69.69,0,0,1-.51.74,1.86,1.86,0,0,1-.57.11,2.29,2.29,0,0,1-.62-.11.82.82,0,0,1-.51-.34l.23-.4a1.84,1.84,0,0,0,.45.28,1.58,1.58,0,0,0,.51.12.82.82,0,0,0,.4-.12c.11-.05.11-.17.11-.28s0-.17-.06-.23a.29.29,0,0,0-.22-.11c-.12,0-.17-.06-.34-.11l-.46-.17a.63.63,0,0,1-.28-.23.5.5,0,0,1-.11-.4.82.82,0,0,1,.11-.4A.93.93,0,0,1,97.5,20a1.37,1.37,0,0,1,.57-.11A.94.94,0,0,1,98.63,20Z" style="fill:#636363"/><path d="M104.09,20.3v2.44h-.52V20.3h-.9v-.45H105v.45Z" style="fill:#636363"/><path d="M108.4,20.08a1.53,1.53,0,0,1,.57.51,1.61,1.61,0,0,1,.22.74,1.11,1.11,0,0,1-.22.73,1.23,1.23,0,0,1-.57.51,1.73,1.73,0,0,1-.79.17,1.89,1.89,0,0,1-.8-.17,1.53,1.53,0,0,1-.57-.51,1.6,1.6,0,0,1-.22-.73,1.12,1.12,0,0,1,.22-.74,1.23,1.23,0,0,1,.57-.51,1.74,1.74,0,0,1,.8-.17A.92.92,0,0,1,108.4,20.08Zm-1.25.34a2.3,2.3,0,0,0-.4.34.86.86,0,0,0-.11.51,1.87,1.87,0,0,0,.11.51,1.52,1.52,0,0,0,.4.4.86.86,0,0,0,.51.11,1.87,1.87,0,0,0,.51-.11,1.39,1.39,0,0,0,.4-.4.86.86,0,0,0,.11-.51,1.56,1.56,0,0,0-.11-.51.73.73,0,0,0-.4-.34.8.8,0,0,0-.51-.12A1.28,1.28,0,0,0,107.15,20.42Z" style="fill:#636363"/><path d="M111.81,21.5l-.51.51v.73h-.46V19.85h.51v1.48l1.36-1.48h.57l-1.13,1.25,1.19,1.64h-.57Z" style="fill:#636363"/><path d="M115.38,20.3v.8h1.42v.45h-1.42v.8H117v.45h-2.1V19.91h2v.45h-1.54Z" style="fill:#636363"/><path d="M120.72,22.74l-1.53-2v2h-.51V19.85h.45l1.53,2v-2h.46v2.89Z" style="fill:#636363"/><path d="M127.25,20.13a1.12,1.12,0,0,1,0,1.48,1.18,1.18,0,0,1-.85.28h-.68v.85h-.52V19.85h1.14A1.59,1.59,0,0,1,127.25,20.13Zm-1.48,1.31h.63a.73.73,0,0,0,.51-.17.57.57,0,0,0,.17-.46.43.43,0,0,0-.17-.39c-.12-.12-.29-.12-.51-.12h-.63Z" style="fill:#636363"/><path d="M130.94,22.29v.45h-1.7V19.85h.51v2.44Z" style="fill:#636363"/><path d="M132.93,22.12l-.29.62h-.51l1.25-2.89h.51l1.25,2.89h-.45l-.29-.62Zm.73-1.7-.56,1.25h1.08Z" style="fill:#636363"/><path d="M137.47,20.3v2.44H137V20.3h-.91v-.45h2.33v.45Z" style="fill:#636363"/><path d="M140.42,20.3v.86h1.31v.45h-1.31V22.8h-.51V19.91h1.93v.45h-1.42Z" style="fill:#636363"/><path d="M145.47,20.08a1.53,1.53,0,0,1,.57.51,1.61,1.61,0,0,1,.23.74,1.12,1.12,0,0,1-.23.73,1.18,1.18,0,0,1-.57.51,1.7,1.7,0,0,1-.79.17,1.92,1.92,0,0,1-.8-.17,1.58,1.58,0,0,1-.56-.51,1.5,1.5,0,0,1-.23-.73,1.13,1.13,0,0,1,.23-.74,1.21,1.21,0,0,1,.56-.51,1.74,1.74,0,0,1,.8-.17A1,1,0,0,1,145.47,20.08Zm-1.3.34a2,2,0,0,0-.4.34.86.86,0,0,0-.11.51,1.56,1.56,0,0,0,.11.51,1.39,1.39,0,0,0,.4.4.86.86,0,0,0,.51.11,1.87,1.87,0,0,0,.51-.11,1.52,1.52,0,0,0,.4-.4.86.86,0,0,0,.11-.51,1.87,1.87,0,0,0-.11-.51.76.76,0,0,0-.4-.34.8.8,0,0,0-.51-.12A1.58,1.58,0,0,0,144.17,20.42Z" style="fill:#636363"/><path d="M149.16,21.89h-.79v.85h-.51V19.85h1.19a1.4,1.4,0,0,1,.85.28.81.81,0,0,1,.29.74.92.92,0,0,1-.18.57.69.69,0,0,1-.45.34l.63,1h-.57Zm.4-.56a.59.59,0,0,0,.17-.46.46.46,0,0,0-.17-.4c-.11-.11-.28-.11-.51-.11h-.68V21.5h.68A3.3,3.3,0,0,0,149.56,21.33Z" style="fill:#636363"/><path d="M154.56,22.74V20.59l-.91,1.81h-.34l-.91-1.81v2.15H152V19.85h.56l1,1.93,1-1.93H155v2.89Z" style="fill:#636363"/></g><polygon points="46.29 2.91 46.2 1.36 45.73 2.67 43.15 4.93 40.21 5.37 39.32 4.51 41.9 0.95 44.57 0.15 41.69 0.21 37.51 3.23 33.62 2.97 37.54 5.64 39.47 7 33.59 2.88 28.1 0.15 28.1 0.15 24.87 0.8 14.75 9.23 9.88 10.8 7.86 12.85 4.27 12.88 2.49 16.2 0 16.91 2.37 17.24 4.54 14.27 7.95 14.99 7.89 18.16 6.17 22.73 5.22 26.95 4.18 28.64 6.83 28.04 6.53 26.32 8.75 21.69 13.09 19.94 14.78 17.15 17.6 15.1 23.21 15.94 28.87 13.44 27.92 17.36 25.4 17.6 24.69 20.83 26.83 19.38 30.39 17.83 33.21 13.44 33.35 11.37 34.87 12.94 39.23 15.67 41.69 14.48 41.54 8.7 40.83 6.47 44.07 5.64 46.29 2.91" style="fill:#3c3c3c"/><polygon points="39.35 4.57 37.45 3.21 41.9 0.95 39.35 4.57" style="fill:#4d4d4d"/><polygon points="28.04 0 33.59 2.88 34.24 7.48 28.04 0" style="fill:#3c3c3c"/><polygon points="34.24 7.48 33.35 11.37 28.04 0 34.24 7.48" style="fill:#4d4d4d"/><polygon points="33.35 11.37 24.87 0.65 28.04 0.03 33.35 11.37" style="fill:#5b5b5b"/><polygon points="33.35 11.37 24.16 7.78 24.87 0.65 33.35 11.37" style="fill:#646464"/><polygon points="24.87 0.65 24.16 7.78 14.66 9.11 24.87 0.65" style="fill:#5b5b5b"/><polygon points="33.35 11.37 23.21 14.13 24.16 7.78 33.35 11.37" style="fill:#5b5b5b"/><polygon points="23.21 14.13 33.35 11.37 28.78 13.5 23.21 14.13" style="fill:#4d4d4d"/><polygon points="17.6 15.1 23.21 14.13 23.3 16.05 17.6 15.1" style="fill:#4d4d4d"/><polygon points="23.3 16.05 23.21 14.13 28.78 13.5 23.3 16.05" style="fill:#3c3c3c"/><polygon points="14.66 9.11 24.16 7.78 23.21 14.13 14.66 9.11" style="fill:#4d4d4d"/><polygon points="14.66 9.11 23.21 14.13 17.6 15.1 14.66 9.11" style="fill:#5b5b5b"/><polygon points="14.66 9.11 17.6 15.1 14.78 17.15 14.66 9.11" style="fill:#3c3c3c"/><polygon points="9.85 10.71 10.98 17.54 7.86 12.85 9.85 10.71" style="fill:#646464"/><polygon points="4.27 12.88 7.86 12.85 7.89 15.04 4.27 12.88" style="fill:#3c3c3c"/><polygon points="4.57 14.36 4.27 12.88 7.89 15.04 4.57 14.36" style="fill:#4d4d4d"/><polygon points="4.57 14.36 2.49 16.2 4.27 12.88 4.57 14.36" style="fill:#5b5b5b"/><polygon points="2.49 16.2 2.34 17.3 0 16.91 2.49 16.2" style="fill:#3c3c3c"/><polygon points="2.49 16.2 4.57 14.36 2.34 17.3 2.49 16.2" style="fill:#646464"/><polygon points="7.86 12.85 10.98 17.54 7.89 18.16 7.86 12.85" style="fill:#4d4d4d"/><polygon points="8.78 21.63 6.53 26.32 6.17 22.73 8.78 21.63" style="fill:#4d4d4d"/><polygon points="6.17 22.73 6.53 26.32 5.22 26.95 6.17 22.73" style="fill:#1f243e"/><polygon points="6.53 26.32 6.86 28.07 4.18 28.64 6.53 26.32" style="fill:#4d4d4d"/><polygon points="5.22 26.95 6.53 26.32 4.18 28.64 5.22 26.95" style="fill:#3c3c3c"/><polygon points="7.89 18.16 10.98 17.54 6.17 22.73 7.89 18.16" style="fill:#3c3c3c"/><polygon points="10.98 17.54 13.09 19.94 6.17 22.73 10.98 17.54" style="fill:#5b5b5b"/><polygon points="9.85 10.71 14.66 9.11 10.98 17.54 9.85 10.71" style="fill:#5b5b5b"/><polygon points="10.98 17.54 14.66 9.11 14.78 17.15 10.98 17.54" style="fill:#4d4d4d"/><polygon points="13.09 19.94 10.98 17.54 14.78 17.15 13.09 19.94" style="fill:#3c3c3c"/><polygon points="28.78 13.5 33.24 13.47 30.39 17.83 28.78 13.5" style="fill:#5b5b5b"/><polygon points="28.78 13.5 33.35 11.37 33.24 13.47 28.78 13.5" style="fill:#646464"/><polygon points="27.92 17.36 28.78 13.5 30.39 17.83 27.92 17.36" style="fill:#4d4d4d"/><polygon points="26.83 19.38 27.92 17.36 30.39 17.83 26.83 19.38" style="fill:#5b5b5b"/><polygon points="24.69 20.83 25.34 17.51 27.92 17.36 24.69 20.83" style="fill:#4d4d4d"/><polygon points="24.69 20.83 27.92 17.36 26.83 19.38 24.69 20.83" style="fill:#3c3c3c"/><polygon points="37.45 3.21 41.69 0.21 41.9 0.95 37.45 3.21" style="fill:#595959"/><polygon points="41.69 0.21 45.16 0.03 41.9 0.95 41.69 0.21" style="fill:#6f6f6f"/><polygon points="39.47 7 37.54 5.64 44.07 5.64 39.47 7" style="fill:#626262"/><polygon points="37.54 5.64 43.15 4.93 44.07 5.64 37.54 5.64" style="fill:#595959"/><polygon points="43.15 4.93 45.73 2.67 44.07 5.64 43.15 4.93" style="fill:#4d4d4d"/><polygon points="44.07 5.64 45.73 2.67 46.29 2.91 44.07 5.64" style="fill:#626262"/><polygon points="45.73 2.67 46.2 1.36 46.29 2.91 45.73 2.67" style="fill:#3c3c3c"/><polygon points="34.24 7.48 34.87 12.94 33.35 11.37 34.24 7.48" style="fill:#3c3c3c"/><polygon points="34.87 12.94 34.24 7.48 39.47 7 34.87 12.94" style="fill:#4d4d4d"/><polygon points="39.47 7 34.24 7.48 33.59 2.88 39.47 7" style="fill:#5b5b5b"/><polygon points="39.35 4.57 40.18 5.34 37.54 5.64 39.35 4.57" style="fill:#3c3c3c"/><polygon points="33.59 2.88 39.35 4.57 37.54 5.64 33.59 2.88" style="fill:#4d4d4d"/><polygon points="33.59 2.88 37.45 3.21 39.35 4.57 33.59 2.88" style="fill:#3c3c3c"/><polygon points="39.23 15.67 39.47 7 41.54 8.7 39.23 15.67" style="fill:#4d4d4d"/><polygon points="39.23 15.67 39.47 7 34.87 12.94 39.23 15.67" style="fill:#595959"/><polygon points="41.54 8.7 40.89 6.53 39.47 7 41.54 8.7" style="fill:#3c3c3c"/><polygon points="41.84 14.48 39.23 15.67 41.54 8.7 41.84 14.48" style="fill:#3c3c3c"/></g></g></svg>