<svg xmlns="http://www.w3.org/2000/svg" viewBox="0 0 250 250"><title>collaboration</title><g id="909ca85c-faf6-47e5-b6fd-dd24639e0e96" data-name="Layer 2"><g id="8e18d1f8-c019-484b-a133-c7f796062f00" data-name="Calque 1"><rect id="321b2648-9d16-4fc1-9e67-8ed11ff202be" data-name="&lt;Path&gt;" width="250" height="250" style="fill:#fff"/><path d="M125,175.15A15.86,15.86,0,0,1,109.26,161a44.43,44.43,0,0,1-28.21-48.87,15.64,15.64,0,0,1-6.51-12.75A15.77,15.77,0,0,1,96.72,85a44.47,44.47,0,0,1,56.5,0,15.77,15.77,0,0,1,15.65,27.21A44.42,44.42,0,0,1,140.64,161,15.86,15.86,0,0,1,125,175.15Zm0-22.58a6.79,6.79,0,1,0,6.79,6.79A6.79,6.79,0,0,0,125,152.57Zm0-9a15.86,15.86,0,0,1,14,8.44,35.67,35.67,0,0,0,21.56-32.65,37.11,37.11,0,0,0-.25-4.2l-.54,0A15.77,15.77,0,0,1,146.31,91a35.48,35.48,0,0,0-42.65,0,15.77,15.77,0,0,1-13.33,24.23l-.63,0a34.8,34.8,0,0,0-.25,4.2A35.67,35.67,0,0,0,111,152,15.87,15.87,0,0,1,125,143.57Zm34.72-51a6.79,6.79,0,1,0,6.79,6.79A6.8,6.8,0,0,0,159.67,92.6Zm-69.34,0a6.79,6.79,0,1,0,6.79,6.79A6.8,6.8,0,0,0,90.33,92.6Z" style="fill:#7ab8e6"/><path d="M125,76.85a42.34,42.34,0,0,1,28,10.52,13.77,13.77,0,0,1,13.73,23.88,42.46,42.46,0,0,1-27.94,48.33,13.78,13.78,0,0,1-27.55,0A42.46,42.46,0,0,1,83.25,111.2,13.77,13.77,0,0,1,97,87.34,42.32,42.32,0,0,1,125,76.85M90.33,113.18A13.85,13.85,0,0,1,88,113,37.58,37.58,0,0,0,112,154.57a13.76,13.76,0,0,1,25.82,0,37.47,37.47,0,0,0,24-41.59A13.77,13.77,0,0,1,149,90.62a37.47,37.47,0,0,0-48.12-.05,13.78,13.78,0,0,1-10.59,22.61m69.34-5a8.79,8.79,0,1,0-8.79-8.79,8.8,8.8,0,0,0,8.79,8.79m-69.34,0a8.79,8.79,0,1,0-8.79-8.79,8.81,8.81,0,0,0,8.79,8.79m34.62,60a8.79,8.79,0,1,0-8.78-8.79,8.8,8.8,0,0,0,8.78,8.79m0-95.3a46.47,46.47,0,0,0-28.57,9.82A17.77,17.77,0,0,0,78.89,113a47.51,47.51,0,0,0-.44,6.38,46.76,46.76,0,0,0,29,43.09,17.77,17.77,0,0,0,35,0A46.4,46.4,0,0,0,171,113.06a17.77,17.77,0,0,0-17.46-30.37A46.49,46.49,0,0,0,125,72.85ZM106.28,91.54a33.47,33.47,0,0,1,37.41,0,17.77,17.77,0,0,0,14.69,25.54c.05.74.08,1.49.08,2.23a33.66,33.66,0,0,1-18.77,30.08,17.74,17.74,0,0,0-29.48,0,33.65,33.65,0,0,1-18.76-30.08c0-.74,0-1.48.07-2.22a17.76,17.76,0,0,0,14.76-25.6Zm53.39,12.64a4.79,4.79,0,1,1,4.79-4.79,4.8,4.8,0,0,1-4.79,4.79Zm-69.34,0a4.79,4.79,0,1,1,4.79-4.79,4.8,4.8,0,0,1-4.79,4.79Zm34.62,60a4.79,4.79,0,1,1,4.79-4.79,4.79,4.79,0,0,1-4.79,4.79Z" style="fill:#256e9d"/></g></g></svg>