<svg xmlns="http://www.w3.org/2000/svg" viewBox="0 0 250 250"><title>dollar</title><g id="1560a808-9d57-4faa-a8d5-3e828af21de8" data-name="Layer 2"><g id="2d71290a-3494-46e8-a5a9-93d07c973fb1" data-name="Calque 1"><rect id="bc868b5a-da3c-4ccd-adc6-d87f59da5408" data-name="&lt;Path&gt;" width="250" height="250" style="fill:#fff"/><path d="M69.22,56.05H180.69V167.51H69.22Z" style="fill:none"/><path d="M138.33,134a2.46,2.46,0,0,1-2.46-2.45V104.83a2.46,2.46,0,0,1,2.46-2.45H151.7a2.46,2.46,0,0,1,2.46,2.45v26.76A2.46,2.46,0,0,1,151.7,134Zm2.46-4.91h8.45V107.29h-8.45ZM111.58,134a2.46,2.46,0,0,1-2.46-2.45V104.83a2.46,2.46,0,0,1,2.46-2.45H125a2.46,2.46,0,0,1,2.46,2.45v26.76A2.46,2.46,0,0,1,125,134Zm2.46-4.91h8.45V107.29H114ZM95.74,134V102.38h4.92V134Z" style="fill:#7ab8e6"/><path d="M151.7,104.38a.47.47,0,0,1,.46.46v26.75a.46.46,0,0,1-.46.45H138.33a.46.46,0,0,1-.46-.45V104.84a.47.47,0,0,1,.46-.46H151.7m-12.91,26.75h12.45V105.29H138.79v25.84M125,104.38a.47.47,0,0,1,.46.46v26.75a.46.46,0,0,1-.46.45H111.58a.46.46,0,0,1-.46-.45V104.84a.47.47,0,0,1,.46-.46H125M112,131.13h12.45V105.29H112v25.84M98.66,104.38V132h-.92V104.38h.92m53-4H138.33a4.47,4.47,0,0,0-4.46,4.46v26.75a4.47,4.47,0,0,0,4.46,4.45H151.7a4.46,4.46,0,0,0,4.46-4.45V104.84a4.46,4.46,0,0,0-4.46-4.46Zm-8.91,26.75V109.29h4.45v17.84ZM125,100.38H111.58a4.46,4.46,0,0,0-4.46,4.46v26.75a4.46,4.46,0,0,0,4.46,4.45H125a4.47,4.47,0,0,0,4.46-4.45V104.84a4.47,4.47,0,0,0-4.46-4.46ZM116,127.13V109.29h4.45v17.84Zm-13.38-26.75H93.74V136h8.92V100.38Z" style="fill:#256e9d"/><path d="M83.59,87.19h82.72v62H83.59Z" style="fill:none"/><path d="M71.25,161.57V74.85h107.4v86.72Zm93.06-14.34v-58H85.59v58Z" style="fill:#7ab8e6"/><path d="M176.65,76.85v82.72H73.25V76.85h103.4M83.59,149.23h82.72v-62H83.59v62m97.06-76.38H69.25v90.72h111.4V72.85ZM87.59,91.19h74.72v54H87.59v-54Z" style="fill:#256e9d"/></g></g></svg>