<svg xmlns="http://www.w3.org/2000/svg" viewBox="0 0 1788.44 497.93"><title>blendful-full</title><g id="9bc47211-dea8-4621-955e-392adc8247cf" data-name="Layer 2"><g id="de874e43-8a0f-45c3-8dde-3e5bd3368205" data-name="Layer 2"><rect width="497.93" height="497.93" rx="117.16" ry="117.16" style="fill:#231f20"/><path d="M283.89,247.87c25.94,7.18,54.68,34.72,54.68,77,0,46.7-39.52,80.23-86.61,80.23H185.7c-15.56,0-26.34-11.58-26.34-26.75V246.14" style="fill:#fff;stroke:#231f20;stroke-miterlimit:10"/><path d="M159.36,251.14V118.9c0-15.17,10.78-26.74,26.34-26.74H252c47.09,0,86.61,33.52,86.61,80.22,0,42.31-28.74,69.85-54.68,77" style="fill:#fff;stroke:#231f20;stroke-miterlimit:10"/><path d="M523.2,128.54h72.92V403.85H523.2Z" style="fill:#231f20"/><path d="M723,406.45c-61.76,0-106-40.55-106-107.14,0-66.23,43.53-106.78,106-106.78,61.76,0,105.28,39.81,105.28,104.54a133,133,0,0,1-1.11,17.12h-138C690.61,338.37,703.63,348,720,348c14.14,0,22-7.81,26-16.37H823.8C814.13,374.45,775.06,406.45,723,406.45ZM689.5,278.84h64.36c0-18.6-14.51-28.64-31.25-28.64C705.12,250.2,692.84,259.87,689.5,278.84Z" style="fill:#231f20"/><path d="M991.21,291.86c0-24.18-13.39-38.31-34.23-38.31-21.58,0-35,14.13-35,38.31v112H849.09V195.14H922V224.9c12.28-17.86,34.23-31.62,63.62-31.62,48.36,0,78.5,34.22,78.5,88.91V403.85H991.21Z" style="fill:#231f20"/><path d="M1172.75,192.53c27.53,0,49.11,12.28,60.64,31.25V128.54h73.29V403.85h-73.29v-29c-10.79,18.6-31.62,31.62-61,31.62-49.48,0-88.92-40.55-88.92-107.14S1122.9,192.53,1172.75,192.53Zm23.07,63.62c-20.84,0-38,14.88-38,43.16,0,27.9,17.11,43.52,38,43.52,20.46,0,37.94-15.25,37.94-43.52C1233.76,271.4,1216.28,256.15,1195.82,256.15Z" style="fill:#231f20"/><path d="M1346.11,255.78h-22.69V195.14h22.69v-1.86c0-57.67,37.57-87.43,105.28-82.59v62.13c-21.94-2.24-30.87,3.72-32,22.32h32.74v60.64H1419.4V403.85h-73.29Z" style="fill:#231f20"/><path d="M1682.79,403.85H1609.5V374.08c-11.91,17.86-33.86,31.63-63.25,31.63-48.36,0-78.5-34.23-78.5-89.29V195.14h72.55v112c0,24.18,13.77,38.32,34.6,38.32,21.2,0,34.6-14.14,34.6-38.32v-112h73.29Z" style="fill:#231f20"/><path d="M1715.52,128.54h72.92V403.85h-72.92Z" style="fill:#231f20"/></g></g></svg>