<?xml version="1.0" encoding="UTF-8"?>
<svg width="1554px" height="579px" viewBox="0 0 1554 579" version="1.1" xmlns="http://www.w3.org/2000/svg" xmlns:xlink="http://www.w3.org/1999/xlink">
    <!-- Generator: Sketch 51.2 (57519) - http://www.bohemiancoding.com/sketch -->
    <title>Artboard 3</title>
    <desc>Created with Sketch.</desc>
    <defs>
        <linearGradient x1="0%" y1="0%" x2="100%" y2="100%" id="linearGradient-1">
            <stop stop-color="#464D89" offset="0%"></stop>
            <stop stop-color="#A7A7EE" offset="100%"></stop>
        </linearGradient>
    </defs>
    <g id="Artboard-3" stroke="none" stroke-width="1" fill="none" fill-rule="evenodd">
        <g id="Spot-02" transform="translate(-131.000000, -293.000000)" fill="#CAD8FF" fill-opacity="0.393738678">
            <path d="M69,1151.14247 C69,918.854993 186.589996,821.538639 478.481707,755.959294 C770.561436,691.43866 809.271666,326 1188.3554,326 C1568.48728,326 2068.06562,976.62766 1816.01655,1350.31479 C1564.05752,1724.37256 864.213851,1214.10655 635.001742,1383.51018 C405.343467,1552.10965 69,1382.78431 69,1151.14247 Z" id="Details"></path>
            <path d="M0,825.142469 C0,592.854993 117.589996,495.538639 409.481707,429.959294 C701.561436,365.43866 740.271666,-7.87161135e-13 1119.3554,0 C1499.48728,7.18448738e-13 1999.06562,650.62766 1747.01655,1024.31479 C1495.05752,1398.37256 795.213851,888.106546 566.001742,1057.51018 C336.343467,1226.10965 2.27360195e-14,1056.78431 0,825.142469 Z" id="Details"></path>
        </g>
        <g id="Safari" transform="translate(404.000000, 79.000000)">
            <path d="M10,0 L737,0 C742.522847,-1.01453063e-15 747,4.4771525 747,10 L747,24 L0,24 L0,10 C-6.76353751e-16,4.4771525 4.4771525,4.56724431e-15 10,3.55271368e-15 Z" id="Detail" fill="#D6DFEA"></path>
            <circle id="Detail" fill="#FF6663" cx="12.5" cy="12.5" r="3.5"></circle>
            <circle id="Detail" fill="#FFC62C" cx="23.5" cy="12.5" r="3.5"></circle>
            <circle id="Detail" fill="#00A07D" cx="35.5" cy="12.5" r="3.5"></circle>
            <rect id="Detail" fill="#B6C5D9" x="45" y="5" width="16" height="15" rx="3"></rect>
            <rect id="Detail" fill="#B6C5D9" x="61" y="5" width="16" height="15" rx="3"></rect>
            <rect id="Detail" fill="#B6C5D9" x="81" y="5" width="21" height="15" rx="3"></rect>
            <rect id="Detail" fill="#B6C5D9" x="221" y="5" width="304" height="15" rx="3"></rect>
            <rect id="Detail" fill="#B6C5D9" x="689" y="5" width="22" height="15" rx="3"></rect>
            <rect id="Detail" fill="#B6C5D9" x="716" y="5" width="22" height="15" rx="3"></rect>
            <path d="M0,24 L747,24 L747,415 C747,420.522847 742.522847,425 737,425 L10,425 C4.4771525,425 6.76353751e-16,420.522847 0,415 L0,24 Z" id="Detail" fill="url(#linearGradient-1)"></path>
            <rect id="Detail" fill="#F2F5F9" x="0" y="24" width="747" height="38"></rect>
            <path d="M18.1513761,34 L104.848624,34 C109.902789,34 114,38.0294373 114,43 C114,47.9705627 109.902789,52 104.848624,52 L18.1513761,52 C13.0972107,52 9,47.9705627 9,43 C9,38.0294373 13.0972107,34 18.1513761,34 Z" id="Detail" fill="#D6DFEA"></path>
            <path d="M85.7916667,317 L191.208333,317 C193.854698,317 196,319.238576 196,322 C196,324.761424 193.854698,327 191.208333,327 L85.7916667,327 C83.1453022,327 81,324.761424 81,322 C81,319.238576 83.1453022,317 85.7916667,317 Z" id="Detail" fill="#FFFFFF"></path>
            <path d="M236.791667,317 L342.208333,317 C344.854698,317 347,319.238576 347,322 C347,324.761424 344.854698,327 342.208333,327 L236.791667,327 C234.145302,327 232,324.761424 232,322 C232,319.238576 234.145302,317 236.791667,317 Z" id="Detail" fill="#FFFFFF"></path>
            <path d="M387.791667,317 L493.208333,317 C495.854698,317 498,319.238576 498,322 C498,324.761424 495.854698,327 493.208333,327 L387.791667,327 C385.145302,327 383,324.761424 383,322 C383,319.238576 385.145302,317 387.791667,317 Z" id="Detail" fill="#FFFFFF"></path>
            <path d="M538.791667,317 L644.208333,317 C646.854698,317 649,319.238576 649,322 C649,324.761424 646.854698,327 644.208333,327 L538.791667,327 C536.145302,327 534,324.761424 534,322 C534,319.238576 536.145302,317 538.791667,317 Z" id="Detail" fill="#FFFFFF"></path>
            <path d="M85.7857143,336 L143.214286,336 C145.857363,336 148,338.238576 148,341 C148,343.761424 145.857363,346 143.214286,346 L85.7857143,346 C83.1426373,346 81,343.761424 81,341 C81,338.238576 83.1426373,336 85.7857143,336 Z" id="Detail" fill="#FFFFFF"></path>
            <path d="M85.8137255,114 L567.186275,114 C569.844822,114 572,116.238576 572,119 C572,121.761424 569.844822,124 567.186275,124 L85.8137255,124 C83.1551783,124 81,121.761424 81,119 C81,116.238576 83.1551783,114 85.8137255,114 Z" id="Detail" fill="#F2F5F9"></path>
            <path d="M85.8152174,133 L519.184783,133 C521.844154,133 524,135.238576 524,138 C524,140.761424 521.844154,143 519.184783,143 L85.8152174,143 C83.1558463,143 81,140.761424 81,138 C81,135.238576 83.1558463,133 85.8152174,133 Z" id="Detail" fill="#F2F5F9"></path>
            <path d="M236.785714,336 L294.214286,336 C296.857363,336 299,338.238576 299,341 C299,343.761424 296.857363,346 294.214286,346 L236.785714,346 C234.142637,346 232,343.761424 232,341 C232,338.238576 234.142637,336 236.785714,336 Z" id="Detail" fill="#FFFFFF"></path>
            <path d="M387.785714,336 L445.214286,336 C447.857363,336 450,338.238576 450,341 C450,343.761424 447.857363,346 445.214286,346 L387.785714,346 C385.142637,346 383,343.761424 383,341 C383,338.238576 385.142637,336 387.785714,336 Z" id="Detail" fill="#FFFFFF"></path>
            <path d="M538.785714,336 L596.214286,336 C598.857363,336 601,338.238576 601,341 C601,343.761424 598.857363,346 596.214286,346 L538.785714,346 C536.142637,346 534,343.761424 534,341 C534,338.238576 536.142637,336 538.785714,336 Z" id="Detail" fill="#FFFFFF"></path>
            <circle id="Detail" fill="#D6DFEA" cx="701" cy="43" r="9"></circle>
            <circle id="Detail" fill="#D6DFEA" cx="729" cy="43" r="9"></circle>
            <path d="M234.890511,176 L361.109489,176 C362.705874,176 364,177.294126 364,178.890511 L364,305.109489 C364,306.705874 362.705874,308 361.109489,308 L234.890511,308 C233.294126,308 232,306.705874 232,305.109489 L232,178.890511 C232,177.294126 233.294126,176 234.890511,176 Z" id="Detail" fill="#464D89"></path>
            <path d="M288,226.23496 L288,256.765116 C288,257.317401 288.447715,257.765116 289,257.765116 C289.198211,257.765116 289.39195,257.706212 289.556617,257.595885 L312.340232,242.330807 C312.799053,242.023395 312.921795,241.402241 312.614383,240.94342 C312.541759,240.835027 312.448625,240.741893 312.340232,240.669269 L289.556617,225.404191 C289.097796,225.096779 288.476642,225.219521 288.169231,225.678342 C288.058904,225.843009 288,226.036749 288,226.23496 Z" id="Detail" fill="#F2F5F9"></path>
            <path d="M385.890511,176 L512.109489,176 C513.705874,176 515,177.294126 515,178.890511 L515,305.109489 C515,306.705874 513.705874,308 512.109489,308 L385.890511,308 C384.294126,308 383,306.705874 383,305.109489 L383,178.890511 C383,177.294126 384.294126,176 385.890511,176 Z" id="Detail" fill="#464D89"></path>
            <path d="M440,226.23496 L440,256.765116 C440,257.317401 440.447715,257.765116 441,257.765116 C441.198211,257.765116 441.39195,257.706212 441.556617,257.595885 L464.340232,242.330807 C464.799053,242.023395 464.921795,241.402241 464.614383,240.94342 C464.541759,240.835027 464.448625,240.741893 464.340232,240.669269 L441.556617,225.404191 C441.097796,225.096779 440.476642,225.219521 440.169231,225.678342 C440.058904,225.843009 440,226.036749 440,226.23496 Z" id="Detail" fill="#F2F5F9"></path>
            <path d="M536.890511,176 L663.109489,176 C664.705874,176 666,177.294126 666,178.890511 L666,305.109489 C666,306.705874 664.705874,308 663.109489,308 L536.890511,308 C535.294126,308 534,306.705874 534,305.109489 L534,178.890511 C534,177.294126 535.294126,176 536.890511,176 Z" id="Detail" fill="#464D89"></path>
            <path d="M591,226.23496 L591,256.765116 C591,257.317401 591.447715,257.765116 592,257.765116 C592.198211,257.765116 592.39195,257.706212 592.556617,257.595885 L615.340232,242.330807 C615.799053,242.023395 615.921795,241.402241 615.614383,240.94342 C615.541759,240.835027 615.448625,240.741893 615.340232,240.669269 L592.556617,225.404191 C592.097796,225.096779 591.476642,225.219521 591.169231,225.678342 C591.058904,225.843009 591,226.036749 591,226.23496 Z" id="Detail" fill="#F2F5F9"></path>
            <path d="M0,373 L747,373 L747,415 C747,420.522847 742.522847,425 737,425 L10,425 C4.4771525,425 6.76353751e-16,420.522847 0,415 L0,373 Z" id="Detail" fill="#F2F5F9"></path>
            <rect id="Detail" fill="#F2F5F9" x="0" y="373" width="747" height="6"></rect>
            <rect id="Detail" fill="#C74D75" x="0" y="373" width="481" height="6"></rect>
            <path d="M13.8148148,387 L160.185185,387 C162.844334,387 165,389.238576 165,392 C165,394.761424 162.844334,397 160.185185,397 L13.8148148,397 C11.155666,397 9,394.761424 9,392 C9,389.238576 11.155666,387 13.8148148,387 Z" id="Detail" fill="#D6DFEA"></path>
            <circle id="Detail" fill="#C74D75" cx="485.5" cy="376.5" r="6.5"></circle>
            <circle id="Detail" fill="#C74D75" cx="373.5" cy="401.5" r="17.5"></circle>
            <path d="M410,394.232436 L410,409.76765 C410,410.319935 410.447715,410.76765 411,410.76765 C411.195545,410.76765 411.386799,410.710319 411.550098,410.60275 L423.342043,402.835143 C423.803256,402.531332 423.930856,401.911158 423.627045,401.449945 C423.552372,401.336586 423.455402,401.239616 423.342043,401.164943 L411.550098,393.397336 C411.088885,393.093525 410.468711,393.221125 410.1649,393.682338 C410.057331,393.845637 410,394.036891 410,394.232436 Z" id="Detail" fill="#C74D75"></path>
            <path d="M323.207944,394.232436 L323.207944,409.76765 C323.207944,410.319935 323.655659,410.76765 324.207944,410.76765 C324.403489,410.76765 324.594743,410.710319 324.758042,410.60275 L336.549987,402.835143 C337.0112,402.531332 337.138799,401.911158 336.834989,401.449945 C336.760316,401.336586 336.663346,401.239616 336.549987,401.164943 L324.758042,393.397336 C324.296829,393.093525 323.676655,393.221125 323.372844,393.682338 C323.265275,393.845637 323.207944,394.036891 323.207944,394.232436 Z" id="Detail" fill="#C74D75" transform="translate(330.103972, 401.999988) scale(-1, 1) translate(-330.103972, -401.999988) "></path>
            <path d="M13.787234,407 L94.212766,407 C96.8566823,407 99,409.238576 99,412 C99,414.761424 96.8566823,417 94.212766,417 L13.787234,417 C11.1433177,417 9,414.761424 9,412 C9,409.238576 11.1433177,407 13.787234,407 Z" id="Detail" fill="#D6DFEA"></path>
            <rect id="Detail" fill="#C74D75" x="427" y="393" width="3" height="17" rx="1.5"></rect>
            <circle id="Detail" fill="#D6DFEA" cx="729" cy="401" r="9"></circle>
            <rect id="Detail" fill="#C74D75" x="317" y="393" width="3" height="17" rx="1.5"></rect>
            <path d="M368,394.232436 L368,409.76765 C368,410.319935 368.447715,410.76765 369,410.76765 C369.195545,410.76765 369.386799,410.710319 369.550098,410.60275 L381.342043,402.835143 C381.803256,402.531332 381.930856,401.911158 381.627045,401.449945 C381.552372,401.336586 381.455402,401.239616 381.342043,401.164943 L369.550098,393.397336 C369.088885,393.093525 368.468711,393.221125 368.1649,393.682338 C368.057331,393.845637 368,394.036891 368,394.232436 Z" id="Detail" fill="#F2F5F9"></path>
            <path d="M83.8905109,176 L210.109489,176 C211.705874,176 213,177.294126 213,178.890511 L213,305.109489 C213,306.705874 211.705874,308 210.109489,308 L83.8905109,308 C82.2941258,308 81,306.705874 81,305.109489 L81,178.890511 C81,177.294126 82.2941258,176 83.8905109,176 Z" id="Detail" fill="#464D89"></path>
            <path d="M138,226.23496 L138,256.765116 C138,257.317401 138.447715,257.765116 139,257.765116 C139.198211,257.765116 139.39195,257.706212 139.556617,257.595885 L162.340232,242.330807 C162.799053,242.023395 162.921795,241.402241 162.614383,240.94342 C162.541759,240.835027 162.448625,240.741893 162.340232,240.669269 L139.556617,225.404191 C139.097796,225.096779 138.476642,225.219521 138.169231,225.678342 C138.058904,225.843009 138,226.036749 138,226.23496 Z" id="Detail" fill="#F2F5F9"></path>
        </g>
    </g>
</svg>