<?xml version="1.0" encoding="UTF-8"?>
<svg width="1345px" height="1144px" viewBox="0 0 1345 1144" version="1.1" xmlns="http://www.w3.org/2000/svg" xmlns:xlink="http://www.w3.org/1999/xlink">
    <!-- Generator: Sketch 51.2 (57519) - http://www.bohemiancoding.com/sketch -->
    <title>Artboard 2</title>
    <desc>Created with Sketch.</desc>
    <defs>
        <linearGradient x1="69.3623584%" y1="0%" x2="50%" y2="100%" id="linearGradient-1">
            <stop stop-color="#DFF6FF" offset="0%"></stop>
            <stop stop-color="#F9FAFF" offset="100%"></stop>
        </linearGradient>
        <rect id="path-2" x="0" y="0" width="1249" height="1048"></rect>
        <filter x="-5.8%" y="-6.8%" width="111.7%" height="113.9%" filterUnits="objectBoundingBox" id="filter-4">
            <feMorphology radius="1" operator="dilate" in="SourceAlpha" result="shadowSpreadOuter1"></feMorphology>
            <feOffset dx="0" dy="2" in="shadowSpreadOuter1" result="shadowOffsetOuter1"></feOffset>
            <feGaussianBlur stdDeviation="23" in="shadowOffsetOuter1" result="shadowBlurOuter1"></feGaussianBlur>
            <feColorMatrix values="0 0 0 0 0   0 0 0 0 0   0 0 0 0 0  0 0 0 0.155315897 0" type="matrix" in="shadowBlurOuter1"></feColorMatrix>
        </filter>
        <linearGradient x1="50%" y1="0%" x2="50%" y2="100%" id="linearGradient-5">
            <stop stop-color="#FFC62C" stop-opacity="0" offset="0%"></stop>
            <stop stop-color="#FF6663" stop-opacity="0.3" offset="100%"></stop>
        </linearGradient>
        <path d="M167.721559,63.7893466 C167.721559,46.4540861 149.851563,16.9475088 153.488313,14.3840096 C161.201875,8.94681698 173.147074,33.3949166 175.917684,40.5323523 C178.688293,47.6697879 166.548925,7.01797428e-16 172.167017,0 C181.587837,0 185.192552,28.7197897 185.192552,32.5921721 C185.192552,36.4645545 196.767349,22.850713 209.149484,35.2379017 C221.53162,47.6250903 167.721559,66.1842295 167.721559,63.7893466 Z" id="path-6"></path>
        <linearGradient x1="50%" y1="0%" x2="50%" y2="100%" id="linearGradient-7">
            <stop stop-color="#A7A7EE" stop-opacity="0" offset="0%"></stop>
            <stop stop-color="#4C55A0" stop-opacity="0.2" offset="100%"></stop>
        </linearGradient>
        <path d="M103.129375,256.495012 C107.771339,259.837394 120.155147,258.055509 127.586619,261.201995 C136.75269,264.526704 145.833388,283.167094 131.662827,285.678304 C116.812471,286.707093 94.9374875,283.167094 86.0093044,279.088529 C76.9676889,275.356332 78.5212709,264.088498 79.4873726,255.553616 C82.23307,257.343637 86.3509119,258.230356 91.7159947,258.377805 C96.5649811,258.230356 100.394052,257.601767 103.129375,256.495012 Z" id="path-8"></path>
        <path d="M38.8593184,255.553616 C38.096717,258.905499 38.1175212,263.35589 39.7397677,268.928041 C41.5175572,279.136262 30.5646587,304.596793 15.0871882,302.364104 C-1.02452113,299.453954 -2.37852305,279.136262 6.28269559,271.435746 C13.6362267,265.252754 14.6768513,261.434474 15.0871882,256.389518 C17.6727129,256.995661 21.2054851,257.367392 25.6525794,257.225419 C30.9684818,257.367392 35.2646784,256.760637 38.8593184,255.553616 Z" id="path-9"></path>
        <linearGradient x1="50%" y1="0%" x2="50%" y2="100%" id="linearGradient-10">
            <stop stop-color="#403F9F" stop-opacity="0" offset="0%"></stop>
            <stop stop-color="#000000" stop-opacity="0.2" offset="100%"></stop>
        </linearGradient>
        <path d="M11.557377,20.5810474 C22.6264683,-12.6751808 84.2948107,2.6053573 94.5081967,20.5810474 C102.022383,33.3076081 106.313775,107.223781 118.639344,248.775561 C116.726465,256.261166 109.580578,260.523673 97.5245902,261.578554 C84.8227895,263.272897 76.9322926,261.377516 73.3934426,256.306733 L57.557377,92.8802993 L47.7540984,254.047382 C47.0208887,259.32234 39.5026968,261.898285 25.8852459,261.578554 C11.5152081,261.898285 3.99701626,259.32234 3.26229508,254.047382 C2.95437686,130.238364 -2.89539303,62.1690559 11.557377,20.5810474 Z" id="path-11"></path>
        <path d="M48.2253521,1.75324675 C6.18122768,7.00485742 8.98176185e-16,89.3147999 0,105.701299 C0,122.349254 83.6408451,118.831442 83.6408451,105.701299 C83.6408451,97.4398834 91.42723,67.5610955 107,16.0649351 C95.866193,3.54120703 76.2746437,-1.22935574 48.2253521,1.75324675 Z" id="path-13"></path>
        <linearGradient x1="0%" y1="0%" x2="100%" y2="100%" id="linearGradient-15">
            <stop stop-color="#464D89" stop-opacity="0.3" offset="0%"></stop>
            <stop stop-color="#A7A7EE" stop-opacity="0" offset="100%"></stop>
        </linearGradient>
        <linearGradient x1="50%" y1="0%" x2="50%" y2="100%" id="linearGradient-16">
            <stop stop-color="#403F9F" stop-opacity="0" offset="0%"></stop>
            <stop stop-color="#000000" stop-opacity="0.1" offset="100%"></stop>
        </linearGradient>
        <path d="M225.325344,544.975643 C233.609585,548.870746 249.32814,570.410975 243.876206,582.705047 C237.8559,596.280795 213.485452,588.308593 207.605009,579.752267 C201.724565,571.195942 204.843396,548.228957 204.696839,544 C210.213776,547.258934 219.512793,550.863737 225.325344,544.975643 Z" id="path-17"></path>
        <path d="M295.83473,544.977665 C303.977197,548.880843 326.54526,563.370368 321.18663,575.689926 C315.269355,589.293815 287.75672,581.305087 281.976914,572.731025 C276.197107,564.156963 272.144049,548.237723 272,544 C277.422522,547.265689 290.121653,550.877965 295.83473,544.977665 Z" id="path-18"></path>
        <linearGradient x1="50%" y1="0%" x2="50%" y2="100%" id="linearGradient-19">
            <stop stop-color="#1F1845" stop-opacity="0" offset="0%"></stop>
            <stop stop-color="#000000" stop-opacity="0.2" offset="100%"></stop>
        </linearGradient>
        <path d="M222.516346,37 C135.265857,37 149.927734,130.917226 149.927734,164.851406 C149.927734,198.541842 156.105069,272.821924 203.693709,277.144782 C251.054984,281.941915 277.044432,266.806513 284.071003,225.441418 C291.771573,184.387979 309.766835,37 222.516346,37 Z" id="path-20"></path>
        <linearGradient x1="50%" y1="0%" x2="50%" y2="100%" id="linearGradient-21">
            <stop stop-color="#FF6663" stop-opacity="0" offset="0%"></stop>
            <stop stop-color="#000000" stop-opacity="0.05" offset="100%"></stop>
        </linearGradient>
        <path d="M368.143428,92.9179462 C367.536419,97.4822891 367.077287,101.695337 366.766033,105.55709 C349.947434,108.594272 343.193062,106.83673 346.502915,100.284462 C351.397094,91.870658 351.868897,93.7216172 350.1331,90.2852311 C351.366825,89.9600107 352.5344,89.3144116 353.50508,88.3479109 L358.999881,82.8767688 C361.003461,73.8139178 367.602797,65.452201 364.253196,62.4901723 C360.329269,59.020272 357.726031,67.1815618 350.046265,62.4901723 C342.366499,57.7987829 339.312673,39.5085348 344.766338,35.457928 C350.220003,31.4073212 363.808258,36.7985713 368.021747,39.5085348 C372.235236,42.2184983 371.140548,59.0059336 374.25935,67.4512695 C377.378151,75.8966055 369.730197,79.3742838 368.267004,91.9989044 C368.230112,92.3172111 368.188839,92.6234809 368.143428,92.9179462 Z" id="path-22"></path>
        <path d="M283.689066,300.169091 C299.772163,341.988184 302.809171,516.437339 301.836563,535.820403 C301.655947,554.295893 271.592439,549.562791 267.526977,543.613355 C264.01316,536.726091 247.202737,363.552782 243.135486,363.583327 C239.264497,363.552782 236.194665,533.032955 232.502608,543.613355 C227.691225,553.255926 203.875889,550.922265 200.337372,543.613355 C195.359776,535.366616 170.357894,360.783435 197.284474,300.169091 C200.225109,293.549437 279.962691,290.479813 283.689066,300.169091 Z" id="path-23"></path>
        <path d="M106.226351,86.5423729 C115.895893,77.4612846 165.009897,72.6336489 177.043919,57.9457627 C180.020626,46.2797091 195.852756,12.2254154 202.658784,3.76271186 C208.511376,-3.93855837 223,1.42993318 223,9.03050847 C223,16.6397032 209.692511,75.4514748 199.64527,85.0372881 C190.512673,93.1094952 162.421557,107.987067 146.908784,117.39661 C147.142593,121.747321 146.743364,127.069445 146.155405,133.2 C139.869108,176.192024 134.312789,176.192024 140.128378,203.938983 C145.905574,232.612967 43.2588092,220.908688 53.4898649,203.938983 C63.7209205,186.969278 65.0969663,175.094371 61.777027,164.054237 C60.7016432,158.282013 55.3212257,148.338108 51.9831081,137.715254 C31.6058962,130.416907 3.21880729,125.789527 0.753378378,121.911864 C-0.96407046,117.45365 11.9413268,97.7544644 20.3412162,97.0779661 C28.8337157,96.0219671 62.1921265,92.0941563 83.625,89.5525424 C86.1463782,88.5618406 105.797282,87.4662674 106.226351,86.5423729 Z" id="path-24"></path>
        <linearGradient x1="0%" y1="0%" x2="100%" y2="100%" id="linearGradient-26">
            <stop stop-color="#000000" stop-opacity="0.288581295" offset="0%"></stop>
            <stop stop-color="#3E3D9C" stop-opacity="0" offset="100%"></stop>
        </linearGradient>
        <path d="M0.761150018,119.575024 C2.21048965,112.799973 12.9976464,97.669392 20.3412162,97.0779661 C24.3364736,96.5811762 33.8350268,95.4488002 45.0062071,94.1241752 C40.7539501,102.66811 33.1561068,111.079395 20.3412162,115.891525 C13.5388783,118.503202 6.97426311,119.648565 0.761150018,119.575024 Z" id="path-27"></path>
        <path d="M24.9389313,102.187845 C24.5614395,107.892657 17.9236064,113.868139 15.1145038,114.209945 C12.1734153,113.868139 14.9371856,102.441419 9.82442748,102.187845 C4.00795047,102.441419 -3.08129727,116.982928 1.51145038,126.232044 C5.95864482,135.461218 19.6919483,138.347883 30.2290076,133.745856 C41.0160574,129.745286 43.0763359,107.683775 43.0763359,102.187845 C43.0763359,97.1990634 24.5614395,96.9901817 24.9389313,102.187845 Z" id="path-29"></path>
        <path d="M90.6870229,0 C68.0475667,-8.45338494e-14 3.02290076,17.7685955 3.02290076,33.0607735 C3.02290076,48.6217647 25.2751311,95.5359653 24.9389313,102.187845 C25.2751311,108.67142 43.0950791,105.488363 43.0763359,102.187845 C43.0950791,98.7190225 37.2661682,55.1736621 33.2519084,51.0939227 C29.0653296,47.1183382 56.4888968,54.7676785 68.7709924,47.3370166 C81.0002921,40.0123709 114.294568,8.51558381e-14 90.6870229,0 Z" id="path-30"></path>
        <path d="M0.0239478083,0.264010943 L30.9540638,0.264010943 L30.9540638,26.8030715 C30.9540638,35.3441872 24.0301215,42.2681295 15.4890058,42.2681295 L15.4890058,42.2681295 C6.94789011,42.2681295 0.0239478083,35.3441872 0.0239478083,26.8030715 L0.0239478083,0.264010943 Z" id="path-31"></path>
        <linearGradient x1="100%" y1="0%" x2="0%" y2="100%" id="linearGradient-32">
            <stop stop-color="#000000" stop-opacity="0.3" offset="0%"></stop>
            <stop stop-color="#FF6663" stop-opacity="0" offset="100%"></stop>
        </linearGradient>
        <path d="M6.45551397,51.2968355 C6.51700707,42.4984771 5.1914999e-12,39.7735618 0,34.1978903 C-5.08606448e-12,28.3147776 5.93770446,25.9150193 9.13015226,29.6815211 C9.19359521,29.5225306 9.25842926,29.3655741 9.32463128,29.210698 C12.2196588,22.9881675 12.4037215,26.3722912 33.9119397,20.3412579 C55.9477877,12.4283036 63.0361021,-5.24735574 80.9430747,2.48067609 C81.0388595,5.74564533 84.3913978,16.0896631 86.1752251,23.6697388 C86.9536741,26.977628 93.3177258,31.2718695 94.7078458,46.2253039 C96.0979657,61.1787383 85.1107672,81.6701056 62.178383,86.2976945 C48.6818812,89.0211907 23.3615951,84.1706051 11.6922639,60.4096927 C9.06216034,60.1980121 6.50120089,57.6396908 6.45551397,51.2968355 Z" id="path-33"></path>
        <linearGradient x1="87.6734232%" y1="11.5934517%" x2="0%" y2="100%" id="linearGradient-35">
            <stop stop-color="#000000" stop-opacity="0.2" offset="0%"></stop>
            <stop stop-color="#FF6663" stop-opacity="0" offset="100%"></stop>
        </linearGradient>
        <path d="M0,0.0419726805 L27.3574213,0.0419726805 L27.3574213,21.0310531 C27.3574213,28.5855964 21.233254,34.7097638 13.6787107,34.7097638 L13.6787107,34.7097638 C6.12416737,34.7097638 7.27342214e-16,28.5855964 -3.55271368e-15,21.0310531 L0,0.0419726805 Z" id="path-36"></path>
        <linearGradient x1="100%" y1="0%" x2="0%" y2="100%" id="linearGradient-38">
            <stop stop-color="#000000" stop-opacity="0.2" offset="0%"></stop>
            <stop stop-color="#FFC42C" stop-opacity="0" offset="100%"></stop>
        </linearGradient>
        <path d="M7.15609704,0 C-11.9572578,12.0743759 11.8025909,36.8649645 25.0868165,56.2466557 C25.9612905,57.5225137 41.2335828,53.8866122 40.5432096,50.6620574 C38.9420793,43.1835918 39.2145782,34.8160467 33.7323498,23.5771775 C25.8863014,7.49234781 25.0438877,5.99266988 7.15609704,0 Z" id="path-39"></path>
        <path d="M40.5432096,50.6620574 C41.2335828,53.8866122 42.2722918,56.9458737 44.2708456,59.9987439 C50.9044936,70.1319046 58.413685,88.5029636 50.9760561,100.9213 C43.5384273,113.339636 29.4616454,110.899949 26.4732628,100.9213 C23.4848801,90.9426501 40.0011743,79.8135899 27.5588378,59.9987439 C26.7903703,58.7749332 25.9612905,57.5225137 25.0868165,56.2466557 C25.9612905,57.5225137 41.2335828,53.8866122 40.5432096,50.6620574 Z" id="path-40"></path>
        <path d="M1.75524476,82.6797386 C-1.96336292,72.234558 6.76542167,66.3135752 10.8181818,66.1437908 C2.56624809,48.7772457 -0.506795658,25.7565125 28.9440559,7.51633987 C58.2190136,-10.7020802 83.2464272,6.90851471 93.1398601,31.5686275 C101.749844,52.8916852 109.423881,59.6582877 109,71.4052288 C108.539694,83.266202 102.110561,102.79953 79.5454545,111.24183 C56.4564567,120.073996 36.0995173,112.116296 22.9020979,96.9607843 C14.0045704,100.593226 5.9264557,92.4944429 1.75524476,82.6797386 Z" id="path-41"></path>
        <linearGradient x1="100%" y1="0%" x2="0%" y2="100%" id="linearGradient-43">
            <stop stop-color="#000000" stop-opacity="0.3" offset="0%"></stop>
            <stop stop-color="#FFC42C" stop-opacity="0" offset="100%"></stop>
        </linearGradient>
        <linearGradient x1="50%" y1="0%" x2="50%" y2="100%" id="linearGradient-44">
            <stop stop-color="#403F9F" stop-opacity="0" offset="0%"></stop>
            <stop stop-color="#000000" stop-opacity="0.3" offset="100%"></stop>
        </linearGradient>
        <path d="M170.610278,105.785072 C174.463275,108.540027 177,113.056908 177,118.099237 C177,122.713298 175.120947,126.724423 171.823033,129.520881 C171.29379,128.287044 170.759119,127.000527 170.220779,125.656489 C168.595623,121.572815 166.561018,117.681412 164.165474,114.111561 C160.422392,117.095487 155.706206,118.878695 150.636364,118.878695 C148.215888,118.878695 145.894292,118.519206 143.722366,117.852954 C139.302199,122.788765 133.094778,126.178327 126.09052,127.001744 C122.474943,137.026402 114.152558,144.900615 103.880258,147.857022 C103.916541,148.274166 103.935065,148.696418 103.935065,149.123014 C103.935065,157.057165 97.5275038,163.489065 89.6233766,163.489065 C87.486396,163.489065 85.4588083,163.018919 83.6376666,162.176049 C81.0740791,163.898036 78.6289155,166.885898 78.2342182,171 C67.9086943,165.255373 61,154.328071 61,141.561934 C61,137.01202 61.9336282,132.664965 63.6269029,128.701919 C61.9331337,124.737884 61,120.393706 61,115.854263 C61,96.8935914 76.0071826,81.8294037 94.8961039,81.8294037 C96.9835158,81.8294037 99.0294815,82.0289734 101.015888,82.4110839 C106.123682,76.0361829 113.968959,72 122.766234,72 C129.141168,72 135.016192,74.1194631 139.711887,77.7124625 C142.93424,75.998875 146.651289,75.0244319 150.636364,75.0244319 C162.531938,75.0244319 172.480519,84.841543 172.480519,96.9515633 C172.480519,100.094329 171.810487,103.082669 170.610278,105.785072 Z" id="path-45"></path>
    </defs>
    <g id="Page-1" stroke="none" stroke-width="1" fill="none" fill-rule="evenodd">
        <g id="Artboard-2" transform="translate(48.000000, 46.000000)">
            <mask id="mask-3" fill="white">
                <use xlink:href="#path-2"></use>
            </mask>
            <g id="Rectangle-8" fill-rule="nonzero">
                <use fill="black" fill-opacity="1" filter="url(#filter-4)" xlink:href="#path-2"></use>
                <use fill="url(#linearGradient-1)" xlink:href="#path-2"></use>
            </g>
            <g id="Park" mask="url(#mask-3)">
                <g transform="translate(-61.000000, 200.000000)">
                    <path d="M300,25 C588.516406,-92.8242007 794.963228,243.063671 1091,243 C1387.6298,243.063671 1387.6298,481.531541 1315,553 C1265.97018,601.247098 1209.63684,629.580432 1146,638 L211,638 C78.5571148,308.014548 108.223781,103.681214 300,25 Z" id="Bg" fill="#EDF4FF" fill-rule="evenodd"></path>
                    <path d="M836.959414,120.754242 C838.64585,122.940881 838.240355,126.08063 836.053716,127.767066 C833.867076,129.453503 830.727327,129.048008 829.040891,126.861368 C816.773575,110.955521 803.570768,110.955521 786.46671,127.410995 C784.499282,129.303818 781.377263,129.268554 779.453092,127.331774 C763.178306,110.950345 749.963989,110.950345 736.871858,126.971647 C735.124516,129.109931 731.974594,129.426852 729.83631,127.67951 C727.698026,125.932168 727.381105,122.782246 729.128447,120.643963 C745.15312,101.034006 763.954963,99.914111 783.070896,116.982393 C802.936529,99.9063798 821.731349,101.009477 836.959414,120.754242 Z" id="Detail" fill="#B6C5D9" fill-rule="nonzero"></path>
                    <path d="M746.959414,170.754242 C748.64585,172.940881 748.240355,176.08063 746.053716,177.767066 C743.867076,179.453503 740.727327,179.048008 739.040891,176.861368 C726.773575,160.955521 713.570768,160.955521 696.46671,177.410995 C694.499282,179.303818 691.377263,179.268554 689.453092,177.331774 C673.178306,160.950345 659.963989,160.950345 646.871858,176.971647 C645.124516,179.109931 641.974594,179.426852 639.83631,177.67951 C637.698026,175.932168 637.381105,172.782246 639.128447,170.643963 C655.15312,151.034006 673.954963,149.914111 693.070896,166.982393 C712.936529,149.90638 731.731349,151.009477 746.959414,170.754242 Z" id="Detail" fill="#B6C5D9" fill-rule="nonzero"></path>
                    <path d="M81.6733419,637.996195 C-86.7929189,501.320928 55.8845529,456.49727 66.3653062,428.283184 C77.2381374,399.646451 10.5639971,334.382643 32.3474491,296.401807 C53.9630812,260.486958 111.408554,313.71661 111.722449,271.178593 C111.408554,228.540295 59.4584281,216.831103 41.9858419,143.621195 C26.1523173,70.4053508 134.954607,33.9097642 162.182271,135.693899 C188.679509,236.785503 145.358771,280.034649 178.624235,285.591858 C212.121076,292.990587 249.959185,271.556295 254.030485,318.021705 C257.334184,365.286075 161.817058,393.336185 162.182271,436.931144 C161.817058,479.052659 283.747779,580.913556 81.6733419,637.996195 Z" id="Flower" fill="#E2EAF5" fill-rule="evenodd" transform="translate(127.057126, 355.498097) scale(-1, 1) translate(-127.057126, -355.498097) "></path>
                    <g id="Tree" stroke-width="1" fill="none" fill-rule="evenodd" transform="translate(841.000000, 52.000000)">
                        <path d="M357.61648,323 L371.985274,556.856686 C372.245115,561.085676 369.035198,564.725068 364.815725,564.985495 C364.711297,564.99194 311.117429,564.996775 204.034123,565 C199.806656,565 196.379618,561.565232 196.379618,557.328231 C196.379618,557.223369 198.778794,518.097345 203.577147,439.950161 L188.508417,439.950161 C133.608951,439.950161 89.0932471,395.391719 89,340.390305 C95.9786235,342.764957 103.459463,344.053045 111.241057,344.053045 C119.562372,344.053045 127.539766,342.580081 134.926883,339.880583 L134.926883,340.21716 C134.926883,369.876168 158.916153,393.919545 188.508417,393.919545 L206.405394,393.919545 L210.644265,324.930567 C230.097709,341.632775 255.388326,351.724814 283.035331,351.724814 C311.731888,351.724814 337.889752,340.851991 357.61648,323 Z" id="Detail" fill="#D3E0F1"></path>
                        <path d="M475.891629,119.623123 C508.310974,139.112444 530,174.622233 530,215.196507 C530,276.743698 480.093741,326.637555 418.53125,326.637555 C399.95027,326.637555 382.43114,322.092366 367.025553,314.05342 C346.595951,337.315975 316.628846,352 283.23125,352 C250.09481,352 220.335421,337.544724 199.917948,314.597555 C184.769833,322.297163 167.626294,326.637555 149.46875,326.637555 C87.9062593,326.637555 38,276.743698 38,215.196507 C38,174.622233 59.6890257,139.112444 92.1083707,119.623123 C91.9122631,116.921338 91.8125,114.192841 91.8125,111.441048 C91.8125,49.8938567 141.718759,0 203.28125,0 C235.040063,0 263.696786,13.2783228 284.000009,34.5848629 C304.303223,13.2783189 332.959942,0 364.71875,0 C426.281241,0 476.1875,49.8938567 476.1875,111.441048 C476.1875,114.192841 476.087737,116.921338 475.891629,119.623123 Z" id="Detail" fill="#E2EAF5"></path>
                        <path d="M62.1275847,229.647958 C74.6844473,216.904078 92.1664077,209 111.5,209 C130.833592,209 148.315553,216.904078 160.872415,229.647958 C164.760411,228.680343 168.828658,228.166667 173.017241,228.166667 C200.621957,228.166667 223,250.47781 223,278 C223,305.52219 200.621957,327.833333 173.017241,327.833333 C168.828658,327.833333 164.760411,327.319657 160.872415,326.352042 C148.315553,339.095922 130.833592,347 111.5,347 C92.1664077,347 74.6844473,339.095922 62.1275847,326.352042 C58.2395893,327.319657 54.1713416,327.833333 49.9827586,327.833333 C22.3780433,327.833333 0,305.52219 0,278 C0,250.47781 22.3780433,228.166667 49.9827586,228.166667 C54.1713416,228.166667 58.2395893,228.680343 62.1275847,229.647958 Z" id="Detail" fill="#D3E0F1"></path>
                    </g>
                    <path d="M85,614 L1324,614 C1332.28427,614 1339,666.8304 1339,732 C1339,797.1696 1332.28427,850 1324,850 L85,850 C76.7157288,850 70,797.1696 70,732 C70,666.8304 76.7157288,614 85,614 Z" id="Detail" fill="#D3E0F1" fill-rule="evenodd"></path>
                    <path d="M1339.59293,638 L1203.25788,638 C1198.02326,629.580728 1195,619.643424 1195,609 C1195,578.624339 1219.62434,554 1250,554 C1274.47808,554 1295.22134,569.990718 1302.35341,592.095805 C1303.22732,592.032304 1304.10989,592 1305,592 C1324.88225,592 1341,608.117749 1341,628 C1341,631.46988 1340.50909,634.825101 1339.59293,638 Z" id="Detail" fill="#D3E0F1" fill-rule="evenodd"></path>
                    <path d="M362.258461,638 L74.7972089,638 C69.1927502,627.933068 66,616.339387 66,604 C66,565.340068 97.3400675,534 136,534 C139.934155,534 143.792507,534.324549 147.549743,534.948334 C151.203069,510.085646 172.622689,491 198.5,491 C224.247429,491 245.581801,509.894538 249.393906,534.574402 C252.375842,534.195367 255.415106,534 258.5,534 C272.449218,534 285.465455,537.994565 296.467211,544.902193 C305.876875,538.045582 317.46599,534 330,534 C361.480231,534 387,559.519769 387,591 C387,610.506289 377.201711,627.724066 362.258461,638 Z" id="Detail" fill="#D3E0F1" fill-rule="evenodd"></path>
                </g>
            </g>
            <g id="Spot-03" mask="url(#mask-3)">
                <g transform="translate(622.500000, 386.000000) scale(-1, -1) translate(-622.500000, -386.000000) translate(-42.000000, -45.000000)"></g>
            </g>
            <g id="Selfie" mask="url(#mask-3)">
                <g transform="translate(675.000000, 302.000000)">
                    <g id="Hand-R" fill="none">
                        <use fill="#FFC62C" xlink:href="#path-6"></use>
                        <use fill="url(#linearGradient-5)" xlink:href="#path-6"></use>
                    </g>
                    <path d="M0.574040595,587.749829 C16.0914252,547.457427 155.637552,524 251.617096,524 C347.783839,524 414.443545,565.79288 327.965241,593.398548 C241.988187,621.015269 -13.6947343,627.929374 0.574040595,587.749829 Z" id="Sh" fill="#C4D0E1"></path>
                    <g id="Legs" stroke-width="1" fill="none" transform="translate(53.000000, 296.000000)">
                        <g id="Leg-L">
                            <use fill="#A7A7EE" xlink:href="#path-8"></use>
                            <use fill="url(#linearGradient-7)" xlink:href="#path-8"></use>
                        </g>
                        <g id="Leg-R">
                            <use fill="#A7A7EE" xlink:href="#path-9"></use>
                            <use fill="url(#linearGradient-7)" xlink:href="#path-9"></use>
                        </g>
                        <mask id="mask-12" fill="white">
                            <use xlink:href="#path-11"></use>
                        </mask>
                        <g>
                            <use fill="#464D89" xlink:href="#path-11"></use>
                            <use fill="url(#linearGradient-10)" xlink:href="#path-11"></use>
                        </g>
                        <path d="M58.6568028,113.852769 C58.6568028,114.268704 58.3191815,114.605886 57.9027045,114.605886 C57.4862274,114.605886 57.1486061,114.268704 57.1486061,113.852769 C57.1486061,112.315694 57.1354899,111.675135 57.0228472,106.993181 C56.882546,101.161609 56.8506149,97.5940947 56.9591376,93.6958183 C57.3174361,80.8252719 59.2579675,72.4707395 63.8179337,69.1942441 C64.1560038,68.9513288 64.6272421,69.0281105 64.8704739,69.3657408 C65.1137056,69.7033711 65.0368238,70.1739963 64.6987537,70.4169116 C60.6819215,73.3031461 58.811438,81.3561029 58.4667517,93.7376791 C58.3591489,97.6029112 58.3908964,101.149902 58.5306088,106.957 C58.6436799,111.656764 58.6568028,112.29765 58.6568028,113.852769 Z" id="Line" fill="#FFFFFF" fill-rule="nonzero" mask="url(#mask-12)"></path>
                    </g>
                    <g id="Group-7" stroke-width="1" fill="none" transform="translate(65.000000, 211.000000)">
                        <mask id="mask-14" fill="white">
                            <use xlink:href="#path-13"></use>
                        </mask>
                        <g id="Body">
                            <use fill="#A7A7EE" xlink:href="#path-13"></use>
                            <use fill="url(#linearGradient-7)" xlink:href="#path-13"></use>
                        </g>
                        <path d="M7.47699922,52.6091661 C13.2041724,48.357408 16.0898969,113.403307 11.4942706,120.268714 C8.43051978,124.845653 3.08490978,122.717374 -4.54255936,113.883879 C-0.34763575,75.8685757 3.65888378,55.4436715 7.47699922,52.6091661 Z" id="Sh" fill="url(#linearGradient-15)" mask="url(#mask-14)"></path>
                        <path d="M54.7053643,-10.2987013 C34.1133745,2.62621751 62.7519082,30.0591528 75.3288836,49.9597774 C87.905859,69.860402 71.2108416,81.0376399 74.2315615,91.0594872 C77.2522815,101.081335 91.4813886,103.531582 98.9995002,91.0594872 C106.517612,78.587392 98.9271633,60.1368046 92.2217324,49.9597774 C85.5163016,39.7827502 89.50015,29.535003 81.5691993,13.3805419 C73.6382487,-2.77391908 72.7867192,-4.28008913 54.7053643,-10.2987013 Z" id="Sh" fill="url(#linearGradient-15)" mask="url(#mask-14)"></path>
                    </g>
                    <g id="Leg-L" fill="none">
                        <use fill="#403F9F" xlink:href="#path-17"></use>
                        <use fill="url(#linearGradient-16)" xlink:href="#path-17"></use>
                    </g>
                    <g id="Leg-R" fill="none">
                        <use fill="#403F9F" xlink:href="#path-18"></use>
                        <use fill="url(#linearGradient-16)" xlink:href="#path-18"></use>
                    </g>
                    <g id="Hair" fill="none">
                        <use fill="#1F1845" xlink:href="#path-20"></use>
                        <use fill="url(#linearGradient-19)" xlink:href="#path-20"></use>
                    </g>
                    <g id="Phone" stroke-width="1" fill="none" transform="translate(322.000000, 3.000000)">
                        <path d="M9.76783058,17.1013906 L24.0810689,2.93394816 C27.0367266,0.00839695413 31.8097786,0.0273699769 34.7419788,2.97632559 C35.7819507,4.02224023 36.4911509,5.34986077 36.781541,6.79437981 L48.3057146,64.1203308 C48.8037713,66.5978685 48.0216351,69.1593698 46.2236787,70.9390121 L31.9104404,85.1064545 C28.9547826,88.0320057 24.1817307,88.0130327 21.2495305,85.0640771 C20.2095585,84.0181624 19.5003584,82.6905419 19.2099683,81.2460228 L7.68579465,23.9200719 C7.18773793,21.4425342 7.9698742,18.8810328 9.76783058,17.1013906 Z" id="Detail" fill="#1F1744"></path>
                        <path d="M30.1440647,0.789620287 C27.9821214,0.574080964 25.7439617,1.2879937 24.0810689,2.93394816 L9.76783058,17.1013906 C7.9698742,18.8810328 7.18773793,21.4425342 7.68579465,23.9200719 L19.2099683,81.2460228 C19.5003584,82.6905419 20.2095585,84.0181624 21.2495305,85.0640771 C22.7107518,86.5336482 24.6291282,87.2755907 26.551929,87.2881049 C19.8909716,87.7158906 15.610685,86.974548 13.7110689,85.0640771 C12.671097,84.0181624 11.9618969,82.6905419 11.6715068,81.2460228 L0.147333107,23.9200719 C-0.350723605,21.4425342 0.431412658,18.8810328 2.22936904,17.1013906 L16.5426073,2.93394816 C18.5130458,0.98358069 23.0501255,0.25631022 30.1538462,0.752136752 C30.1505774,0.764648778 30.1473169,0.777143289 30.1440647,0.789620287 Z" id="Detail" fill="#50467F"></path>
                    </g>
                    <g id="Hand-R" fill="none">
                        <use fill="#FF6663" xlink:href="#path-22"></use>
                        <use fill="url(#linearGradient-21)" xlink:href="#path-22"></use>
                    </g>
                    <g id="Legs" fill="none">
                        <use fill="#1F1845" xlink:href="#path-23"></use>
                        <use fill="url(#linearGradient-19)" xlink:href="#path-23"></use>
                    </g>
                    <g id="Body" stroke-width="1" fill="none" transform="translate(144.000000, 96.000000)">
                        <mask id="mask-25" fill="white">
                            <use xlink:href="#path-24"></use>
                        </mask>
                        <g>
                            <use fill="#403F9F" xlink:href="#path-24"></use>
                            <use fill="url(#linearGradient-16)" xlink:href="#path-24"></use>
                        </g>
                        <path d="M114.513514,109.871186 C107.175104,112.436005 99.0052896,107.429118 95.6790541,98.5830508 C93.0352292,90.2315592 96.3653536,81.2970712 103.212838,79.0169492 C110.551247,76.4521305 118.721062,81.459018 122.047297,90.3050847 C124.691122,98.6565764 121.360998,107.591064 114.513514,109.871186 Z" id="Detail" fill="#FFFFFF" mask="url(#mask-25)"></path>
                        <path d="M90.4054054,113.633898 C83.4991159,116.134685 75.3987156,110.996326 72.3243243,102.345763 C69.7181853,93.7289296 73.213606,84.8692976 80.6114865,82.779661 C87.517776,80.2788744 95.6181763,85.4172331 98.6925676,94.0677966 C101.298707,102.68463 97.8032859,111.544262 90.4054054,113.633898 Z" id="Detail" fill="#FFFFFF" mask="url(#mask-25)"></path>
                        <mask id="mask-28" fill="white">
                            <use xlink:href="#path-27"></use>
                        </mask>
                        <use id="Sh" fill="url(#linearGradient-26)" xlink:href="#path-27"></use>
                    </g>
                    <g id="Leg-L" stroke-width="1" fill="none" transform="translate(25.000000, 212.000000)">
                        <g>
                            <use fill="#FFC62C" xlink:href="#path-29"></use>
                            <use fill="url(#linearGradient-5)" xlink:href="#path-29"></use>
                        </g>
                        <g>
                            <use fill="#A7A7EE" xlink:href="#path-30"></use>
                            <use fill="url(#linearGradient-7)" xlink:href="#path-30"></use>
                        </g>
                    </g>
                    <g id="Neck" stroke-width="1" fill="none" transform="translate(224.000000, 155.000000)">
                        <g>
                            <use fill="#FF6663" xlink:href="#path-31"></use>
                            <use fill="url(#linearGradient-21)" xlink:href="#path-31"></use>
                        </g>
                        <path d="M30.9540638,20.3989022 C27.2928589,22.4426682 23.1404259,24.0177341 18.5003245,24.9488 C13.5219691,25.9477388 6.93940413,25.9248397 0.0239478083,24.3175527 L0.0239478083,0.264010943 L30.9540638,0.264010943 L30.9540638,20.3989022 Z" id="Sh" fill="url(#linearGradient-32)"></path>
                    </g>
                    <g id="Face" stroke-width="1" fill="none" transform="translate(181.000000, 87.000000)">
                        <mask id="mask-34" fill="white">
                            <use xlink:href="#path-33"></use>
                        </mask>
                        <g>
                            <use fill="#FF6663" xlink:href="#path-33"></use>
                            <use fill="url(#linearGradient-21)" xlink:href="#path-33"></use>
                        </g>
                        <path d="M9.04761905,28.7478261 C26.6662203,30.7257199 40.7306588,29.2359657 51.2409343,24.2785634 C67.0063476,16.84246 74.1862588,12.1298999 92.6428708,16.7902003 C104.947279,19.8970672 101.460502,9.50902941 82.1825397,-14.373913 L12.8174603,-3.7826087 L9.04761905,28.7478261 Z" id="Sh" fill="url(#linearGradient-35)" mask="url(#mask-34)"></path>
                    </g>
                    <g id="Neck" stroke-width="1" fill="none" transform="translate(123.000000, 200.000000)">
                        <mask id="mask-37" fill="white">
                            <use xlink:href="#path-36"></use>
                        </mask>
                        <g>
                            <use fill="#FFC62C" xlink:href="#path-36"></use>
                            <use fill="url(#linearGradient-5)" xlink:href="#path-36"></use>
                        </g>
                        <path d="M9.59232693e-14,1.8944797 L9.41469125e-14,-7.56672297 L27.3574213,-7.56672297 L27.3574213,11.2728574 C23.9271826,12.1416135 20.570263,12.6392986 17.3022611,12.8000539 C19.2255215,15.6412834 21.062401,19.380183 23.6491883,24.6797453 C31.6141946,40.9976885 27.6132394,51.3491424 34.3474635,61.6291605 C41.0816876,71.9091786 48.7047297,90.5464848 41.1543352,103.144797 C33.6039407,115.743109 19.3137336,113.268065 16.2800426,103.144797 C13.2463516,93.0215291 30.0130576,81.7311782 17.3820766,61.6291605 C4.75109548,41.5271428 -24.0104125,13.8165878 -3.33000036,0.760869565 C-2.14905423,1.15624306 -1.04129245,1.53233859 9.59232693e-14,1.8944797 Z" id="Sh" fill="url(#linearGradient-38)" mask="url(#mask-37)"></path>
                    </g>
                    <g id="Hand-L" stroke-width="1" fill="none" transform="translate(105.000000, 200.000000)">
                        <g>
                            <use fill="#403F9F" xlink:href="#path-39"></use>
                            <use fill="url(#linearGradient-16)" xlink:href="#path-39"></use>
                        </g>
                        <g>
                            <use fill="#FF6663" xlink:href="#path-40"></use>
                            <use fill="url(#linearGradient-21)" xlink:href="#path-40"></use>
                        </g>
                    </g>
                    <g id="Face" stroke-width="1" fill="none" transform="translate(77.000000, 93.000000)">
                        <mask id="mask-42" fill="white">
                            <use xlink:href="#path-41"></use>
                        </mask>
                        <g>
                            <use fill="#FFC62C" xlink:href="#path-41"></use>
                            <use fill="url(#linearGradient-5)" xlink:href="#path-41"></use>
                        </g>
                        <path d="M6.26597526,68.0061009 C1.75079465,39.8397087 9.31015488,19.676455 28.9440559,7.51633987 C57.3073032,-10.1347037 81.6834494,5.84637082 92.1718202,29.2860378 C88.8961501,31.2282478 85.0875725,32.3438658 81.0559441,32.3438658 C78.6290484,32.3438658 76.3012939,31.9863235 74.1236068,31.3236779 C69.6917154,36.232769 63.4678294,39.603981 56.4449921,40.4229396 C52.8198242,50.3933281 44.4753645,58.2249139 34.1758165,61.1653156 C34.2121965,61.5802009 34.2307692,62.0001677 34.2307692,62.4244538 C34.2307692,70.3156526 27.8059568,76.7127332 19.8811189,76.7127332 C12.6679717,76.7127332 8.12959045,73.8105224 6.26597526,68.0061009 Z" id="Sh" fill="url(#linearGradient-43)" mask="url(#mask-42)"></path>
                    </g>
                    <g id="Hair" fill="none">
                        <use fill="#464D89" xlink:href="#path-45"></use>
                        <use fill="url(#linearGradient-44)" xlink:href="#path-45"></use>
                    </g>
                </g>
            </g>
            <text id="SVG-Smart-Coloring™" font-family="Poppins-Bold, Poppins" font-size="66" font-weight="bold" line-spacing="72" letter-spacing="-0.4061538" fill="#444A87">
                <tspan x="89" y="330">SVG Smart</tspan>
                <tspan x="89" y="402">Coloring™</tspan>
            </text>
            <text id="Tired-of-manually-ed" font-family="Helvetica" font-size="27" font-weight="normal" line-spacing="44" letter-spacing="-0.4061538" fill="#444A87">
                <tspan x="89" y="476">Tired of manually editing all of your</tspan>
                <tspan x="89" y="520">illustrations? We take care of that</tspan>
                <tspan x="89" y="564">with our auto SVG Smart Coloring.</tspan>
            </text>
        </g>
    </g>
</svg>